<?xml version="1.0" encoding="UTF-8"?>
<svg version="1.1" xmlns="http://www.w3.org/2000/svg" width="580" height="580">
<path d="M0 0 C1.5792627 0.28206299 1.5792627 0.28206299 3.19042969 0.56982422 C51.57526096 9.31583125 96.88544656 29.92350454 135 61 C135.51449707 61.4129834 136.02899414 61.8259668 136.55908203 62.25146484 C144.77298381 68.87719532 152.32866264 76.12786389 159.8125 83.5625 C161.11960937 84.85571167 161.11960937 84.85571167 162.453125 86.17504883 C168.38939018 92.14011438 173.79210247 98.39243647 179 105 C179.80908813 106.02009155 179.80908813 106.02009155 180.63452148 107.06079102 C188.86341771 117.55197444 196.16670924 128.55698595 203 140 C203.46792969 140.7832666 203.93585937 141.5665332 204.41796875 142.37353516 C222.05783857 172.28596147 232.73714466 204.97334313 239 239 C239.17934082 239.92345215 239.35868164 240.8469043 239.54345703 241.79833984 C245.07519189 271.26979714 244.6640807 305.58816179 239 335 C238.81195801 336.0528418 238.62391602 337.10568359 238.43017578 338.19042969 C229.68416875 386.57526096 209.07649546 431.88544656 178 470 C177.5870166 470.51449707 177.1740332 471.02899414 176.74853516 471.55908203 C170.12280468 479.77298381 162.87213611 487.32866264 155.4375 494.8125 C154.57535889 495.68390625 153.71321777 496.5553125 152.82495117 497.453125 C146.85988562 503.38939018 140.60756353 508.79210247 134 514 C133.31993896 514.53939209 132.63987793 515.07878418 131.93920898 515.63452148 C121.44802556 523.86341771 110.44301405 531.16670924 99 538 C98.2167334 538.46792969 97.4334668 538.93585937 96.62646484 539.41796875 C66.71403853 557.05783857 34.02665687 567.73714466 0 574 C-0.92345215 574.17934082 -1.8469043 574.35868164 -2.79833984 574.54345703 C-32.26979714 580.07519189 -66.58816179 579.6640807 -96 574 C-97.0528418 573.81195801 -98.10568359 573.62391602 -99.19042969 573.43017578 C-147.57526096 564.68416875 -192.88544656 544.07649546 -231 513 C-231.77174561 512.3805249 -231.77174561 512.3805249 -232.55908203 511.74853516 C-240.77298381 505.12280468 -248.32866264 497.87213611 -255.8125 490.4375 C-256.68390625 489.57535889 -257.5553125 488.71321777 -258.453125 487.82495117 C-264.38939018 481.85988562 -269.79210247 475.60756353 -275 469 C-275.80908813 467.97990845 -275.80908813 467.97990845 -276.63452148 466.93920898 C-284.86341771 456.44802556 -292.16670924 445.44301405 -299 434 C-299.46792969 433.2167334 -299.93585938 432.4334668 -300.41796875 431.62646484 C-318.05783857 401.71403853 -328.73714466 369.02665687 -335 335 C-335.17934082 334.07654785 -335.35868164 333.1530957 -335.54345703 332.20166016 C-341.07519189 302.73020286 -340.6640807 268.41183821 -335 239 C-334.81195801 237.9471582 -334.62391602 236.89431641 -334.43017578 235.80957031 C-325.68416875 187.42473904 -305.07649546 142.11455344 -274 104 C-273.5870166 103.48550293 -273.1740332 102.97100586 -272.74853516 102.44091797 C-266.12280468 94.22701619 -258.87213611 86.67133736 -251.4375 79.1875 C-250.57535889 78.31609375 -249.71321777 77.4446875 -248.82495117 76.546875 C-242.85988562 70.61060982 -236.60756353 65.20789753 -230 60 C-229.31993896 59.46060791 -228.63987793 58.92121582 -227.93920898 58.36547852 C-217.44802556 50.13658229 -206.44301405 42.83329076 -195 36 C-194.2167334 35.53207031 -193.4334668 35.06414063 -192.62646484 34.58203125 C-162.71403853 16.94216143 -130.02665687 6.26285534 -96 0 C-95.07654785 -0.17934082 -94.1530957 -0.35868164 -93.20166016 -0.54345703 C-63.73020286 -6.07519189 -29.41183821 -5.6640807 0 0 Z " fill="#CFDADE" transform="translate(338,3)"/>
<path d="M0 0 C1.56427734 1.08087891 1.56427734 1.08087891 3.16015625 2.18359375 C10.62275162 7.58554988 17.35111499 13.64842285 24 20 C25.33417969 21.25490234 25.33417969 21.25490234 26.6953125 22.53515625 C32.58971228 28.22226062 37.45045303 34.19726184 42 41 C42.38655762 41.56396484 42.77311523 42.12792969 43.17138672 42.70898438 C52.88495508 56.96531239 59.61278845 72.39455083 64.4375 88.9375 C64.67243164 89.74018311 64.90736328 90.54286621 65.14941406 91.36987305 C71.38159008 114.13116477 71.14344112 140.02535558 66 163 C65.81679199 163.86028809 65.63358398 164.72057617 65.44482422 165.60693359 C61.1057843 185.09584171 51.99148903 202.46681037 42.9621582 220.11206055 C41.63980978 222.70676248 40.34408691 225.31453442 39.046875 227.921875 C28.84816385 248.16773631 16.53124638 267.41680094 4.08447266 286.34082031 C2.54958991 288.68910107 1.05637855 291.06298183 -0.4375 293.4375 C-20.39522228 324.85330283 -41.17178349 356.30047931 -65.6340332 384.41259766 C-67.00485384 386.00564069 -68.34883353 387.61816941 -69.6875 389.23828125 C-71.99212025 391.99058956 -74.42837075 394.49787424 -77 397 C-77.66 397.66 -78.32 398.32 -79 399 C-83.49465841 399 -85.46098493 398.49042148 -88.81640625 395.4375 C-89.750533 394.30691008 -90.66488317 393.15978893 -91.5625 392 C-92.06716797 391.37915527 -92.57183594 390.75831055 -93.09179688 390.11865234 C-94.17661833 388.78249405 -95.25404449 387.44030387 -96.32470703 386.09277344 C-98.01005894 383.98743439 -99.73021742 381.9164322 -101.46484375 379.8515625 C-118.0428759 360.07829096 -132.83983482 339.03566789 -146.98217773 317.47094727 C-148.56128343 315.06435408 -150.14655416 312.66190675 -151.73242188 310.25976562 C-162.20229151 294.35763906 -172.00637339 278.07788181 -181.6875 261.6875 C-183.27339341 259.00310742 -184.86048373 256.31943058 -186.44921875 253.63671875 C-186.8329364 252.98831024 -187.21665405 252.33990173 -187.61199951 251.67184448 C-190.09713529 247.48491514 -192.64097167 243.3399937 -195.21484375 239.20703125 C-198.68568204 233.58961165 -201.85584169 227.87081752 -204.875 222 C-205.38111816 221.01942627 -205.88723633 220.03885254 -206.40869141 219.02856445 C-207.95016425 216.02450164 -209.4782904 213.01411735 -211 210 C-211.46792969 209.07493652 -211.93585938 208.14987305 -212.41796875 207.19677734 C-232.92770755 166.33156354 -238.08956288 123.13160273 -223.875 79.25 C-218.30949825 62.88230741 -210.94230786 48.40482361 -200 35 C-199.32066406 34.11957031 -198.64132813 33.23914063 -197.94140625 32.33203125 C-193.71213259 26.88261626 -189.29971891 21.45375439 -184 17 C-183.34 17 -182.68 17 -182 17 C-182 16.34 -182 15.68 -182 15 C-179.97694075 13.19835503 -177.95314022 11.52740443 -175.8125 9.875 C-175.17828125 9.38290039 -174.5440625 8.89080078 -173.890625 8.38378906 C-167.85487235 3.77297802 -161.62270166 -0.26677034 -155 -4 C-153.948125 -4.59425781 -152.89625 -5.18851563 -151.8125 -5.80078125 C-141.66662388 -11.19676018 -130.96232166 -14.65732237 -120 -18 C-118.8965625 -18.34160156 -117.793125 -18.68320313 -116.65625 -19.03515625 C-78.97355061 -29.56725903 -32.11875385 -22.26708227 0 0 Z " fill="#EFF2F2" transform="translate(364,161)"/>
<path d="M0 0 C1.56427734 1.08087891 1.56427734 1.08087891 3.16015625 2.18359375 C10.62275162 7.58554988 17.35111499 13.64842285 24 20 C25.33417969 21.25490234 25.33417969 21.25490234 26.6953125 22.53515625 C32.58971228 28.22226062 37.45045303 34.19726184 42 41 C42.38655762 41.56396484 42.77311523 42.12792969 43.17138672 42.70898438 C52.88495508 56.96531239 59.61278845 72.39455083 64.4375 88.9375 C64.67243164 89.74018311 64.90736328 90.54286621 65.14941406 91.36987305 C71.38159008 114.13116477 71.14344112 140.02535558 66 163 C65.81679199 163.86028809 65.63358398 164.72057617 65.44482422 165.60693359 C61.1057843 185.09584171 51.99148903 202.46681037 42.9621582 220.11206055 C41.63980978 222.70676248 40.34408691 225.31453442 39.046875 227.921875 C28.84816385 248.16773631 16.53124638 267.41680094 4.08447266 286.34082031 C2.54958991 288.68910107 1.05637855 291.06298183 -0.4375 293.4375 C-20.39522228 324.85330283 -41.17178349 356.30047931 -65.6340332 384.41259766 C-67.00485384 386.00564069 -68.34883353 387.61816941 -69.6875 389.23828125 C-71.99212025 391.99058956 -74.42837075 394.49787424 -77 397 C-77.66 397.66 -78.32 398.32 -79 399 C-83.49465841 399 -85.46098493 398.49042148 -88.81640625 395.4375 C-89.750533 394.30691008 -90.66488317 393.15978893 -91.5625 392 C-92.06716797 391.37915527 -92.57183594 390.75831055 -93.09179688 390.11865234 C-94.17661833 388.78249405 -95.25404449 387.44030387 -96.32470703 386.09277344 C-98.01005894 383.98743439 -99.73021742 381.9164322 -101.46484375 379.8515625 C-118.0428759 360.07829096 -132.83983482 339.03566789 -146.98217773 317.47094727 C-148.56128343 315.06435408 -150.14655416 312.66190675 -151.73242188 310.25976562 C-162.20229151 294.35763906 -172.00637339 278.07788181 -181.6875 261.6875 C-183.27339341 259.00310742 -184.86048373 256.31943058 -186.44921875 253.63671875 C-186.8329364 252.98831024 -187.21665405 252.33990173 -187.61199951 251.67184448 C-190.09713529 247.48491514 -192.64097167 243.3399937 -195.21484375 239.20703125 C-198.68568204 233.58961165 -201.85584169 227.87081752 -204.875 222 C-205.38111816 221.01942627 -205.88723633 220.03885254 -206.40869141 219.02856445 C-207.95016425 216.02450164 -209.4782904 213.01411735 -211 210 C-211.46792969 209.07493652 -211.93585938 208.14987305 -212.41796875 207.19677734 C-232.92770755 166.33156354 -238.08956288 123.13160273 -223.875 79.25 C-218.30949825 62.88230741 -210.94230786 48.40482361 -200 35 C-199.32066406 34.11957031 -198.64132813 33.23914063 -197.94140625 32.33203125 C-193.71213259 26.88261626 -189.29971891 21.45375439 -184 17 C-183.34 17 -182.68 17 -182 17 C-182 16.34 -182 15.68 -182 15 C-179.97694075 13.19835503 -177.95314022 11.52740443 -175.8125 9.875 C-175.17828125 9.38290039 -174.5440625 8.89080078 -173.890625 8.38378906 C-167.85487235 3.77297802 -161.62270166 -0.26677034 -155 -4 C-153.948125 -4.59425781 -152.89625 -5.18851563 -151.8125 -5.80078125 C-141.66662388 -11.19676018 -130.96232166 -14.65732237 -120 -18 C-118.8965625 -18.34160156 -117.793125 -18.68320313 -116.65625 -19.03515625 C-78.97355061 -29.56725903 -32.11875385 -22.26708227 0 0 Z M-108 10 C-109.175625 10.25652344 -110.35125 10.51304687 -111.5625 10.77734375 C-142.0185048 18.16926992 -168.1769586 37.80007218 -184.94042969 64.2421875 C-189.93768662 72.53256767 -193.3323957 81.44852097 -196.3125 90.625 C-196.55508545 91.36379395 -196.7976709 92.10258789 -197.04760742 92.86376953 C-206.33956521 122.96984414 -202.32760952 156.46330592 -187.90039062 184.10693359 C-183.17515578 192.79843857 -177.64239787 200.64936584 -171 208 C-170.12988281 208.97582031 -169.25976562 209.95164062 -168.36328125 210.95703125 C-147.98308846 232.99245014 -116.41852353 245.65353605 -86.71484375 247.28515625 C-76.25655291 247.62380797 -66.20851954 246.15438835 -56 244 C-55.22897949 243.8443457 -54.45795898 243.68869141 -53.66357422 243.52832031 C-31.6051911 238.94559174 -11.3572223 227.49359182 4 211 C4.845625 210.175 5.69125 209.35 6.5625 208.5 C19.56294685 195.16620836 29.51904994 180.16074377 34.25 162 C34.50523437 161.07960938 34.76046875 160.15921875 35.0234375 159.2109375 C42.91964632 129.7040519 39.28598035 94.11152013 24.125 67.5 C8.94858004 42.63401961 -13.38390004 25.23140921 -40 14 C-40.92554688 13.5875 -41.85109375 13.175 -42.8046875 12.75 C-61.49324039 5.38291828 -88.53398856 5.74181 -108 10 Z " fill="#0D7CD4" transform="translate(364,161)"/>
<path d="M0 0 C6.11220289 -0.14549275 9.01338142 2.45621052 13.34703827 6.56739616 C16.7537556 10.76973418 16.39317677 15.14103737 16.32103729 20.34641838 C16.3265863 21.36832268 16.33213531 22.39022697 16.33785248 23.44309807 C16.34964178 26.81385834 16.32537601 30.18327204 16.29955292 33.55393791 C16.29784131 35.90274303 16.29790801 38.25155007 16.29967499 40.60035515 C16.29802204 45.52142952 16.27933031 50.44204821 16.2477951 55.36301994 C16.20816194 61.66001926 16.20374517 67.95642062 16.21125793 74.25352097 C16.21433323 79.10409297 16.20218636 83.95453145 16.18512726 88.80507088 C16.17811225 91.12621663 16.1749709 93.44737751 16.1758194 95.76853371 C16.17401431 99.01872958 16.15256934 102.26822006 16.12572479 105.51829338 C16.1286554 106.47128319 16.131586 107.42427299 16.13460541 108.40614128 C16.05093438 114.99840859 15.11191165 120.54923157 11.29564667 126.12034416 C6.95175766 129.74538629 2.78874774 130.51004917 -2.7287674 130.70921135 C-3.50058475 130.74413059 -4.27240211 130.77904984 -5.06760788 130.81502724 C-17.09399617 131.29235471 -29.13861418 131.24597838 -41.17248058 131.26193905 C-43.29899531 131.26490389 -45.42550506 131.26901367 -47.55201721 131.27344322 C-54.22937097 131.28702797 -60.90671292 131.29674688 -67.5840795 131.30064511 C-75.25302441 131.30515035 -82.92179328 131.32284908 -90.59068465 131.35164571 C-96.55627608 131.37326194 -102.52181781 131.38334881 -108.48744798 131.38468623 C-112.03654224 131.38573122 -115.58546891 131.39157773 -119.13452148 131.40950584 C-123.07810469 131.4290538 -127.021465 131.42469792 -130.96509552 131.41819572 C-132.13084106 131.42741051 -133.29658661 131.43662529 -134.49765778 131.44611931 C-140.95649842 131.41269202 -145.90170903 131.14957328 -150.90357208 126.59690666 C-154.2500689 122.27625837 -156.53999889 119.16958845 -156.55489349 113.63490105 C-156.5619783 112.75458717 -156.56906311 111.8742733 -156.57636261 110.96728325 C-156.57264648 109.53025299 -156.57264648 109.53025299 -156.56885529 108.06419182 C-156.57396622 107.04912056 -156.57907715 106.0340493 -156.58434296 104.98821831 C-156.5982525 101.62985667 -156.59728102 98.27169995 -156.59497833 94.91331291 C-156.59886473 92.5792769 -156.60319929 90.24524159 -156.60796356 87.9112072 C-156.61542888 83.01702902 -156.61513238 78.12292298 -156.60987091 73.2287426 C-156.60407835 66.95844358 -156.62100087 60.68844015 -156.64421558 54.41819 C-156.65895185 49.59689928 -156.65982471 44.77567975 -156.65670586 39.9543705 C-156.6572192 37.64272158 -156.66245937 35.33106869 -156.67251778 33.0194416 C-156.68486136 29.78546549 -156.67810236 26.55206504 -156.66651154 23.31809807 C-156.67415527 22.36412636 -156.68179901 21.41015465 -156.68967438 20.4272747 C-156.64267796 14.49132028 -155.96419862 9.98901772 -151.79419708 5.41721916 C-147.22002279 1.85555741 -144.30389963 0.93914623 -138.58966827 0.90353203 C-137.40085052 0.89374321 -136.21203278 0.88395439 -134.98719025 0.87386894 C-133.02815765 0.86523575 -133.02815765 0.86523575 -131.02954865 0.85642815 C-129.64146382 0.84684831 -128.2533819 0.83683816 -126.86530304 0.82642937 C-123.0924224 0.79936757 -119.31952925 0.77836021 -115.54660511 0.75842738 C-111.59670309 0.73654669 -107.6468393 0.70916169 -103.69696808 0.68237114 C-96.20786802 0.63242194 -88.71874643 0.58750357 -81.22960448 0.54434878 C-72.73311894 0.4951301 -64.23667414 0.44009954 -55.74022722 0.38466918 C-43.20686393 0.30308463 -30.67348689 0.22374401 -18.14007568 0.14985847 C-16.1411558 0.13806022 -14.14223697 0.12608473 -12.14331818 0.11410332 C-9.82479142 0.10063957 -7.50624964 0.08943848 -5.18769836 0.08121872 C-3.45829281 0.06958278 -1.72881858 0.04653273 0 0 Z " fill="#062136" transform="translate(353.29419708251953,219.9382495880127)"/>
<path d="M0 0 C29.54768397 -0.13539651 59.0810027 0.06163832 88.625 0.5 C89.83430616 0.51793673 89.83430616 0.51793673 91.06804276 0.53623581 C101.0454586 0.68477817 111.02277018 0.83943293 121 1 C120.04200626 2.12489177 119.08298737 3.24891054 118.12353516 4.37255859 C117.32261948 5.31160538 117.32261948 5.31160538 116.50552368 6.2696228 C114.87371822 8.14514226 113.16629261 9.9016237 111.375 11.625 C109.42912462 13.53272096 107.73748993 15.33872267 106.0625 17.5 C103.68844688 20.37764015 101.0386687 22.63026419 98.20703125 25.046875 C95.87242697 27.11289649 93.68714135 29.27886164 91.5 31.5 C88.11758601 34.9288279 84.61929558 38.12048518 80.96484375 41.25390625 C78.89179676 43.09615675 76.94564198 45.02401662 75 47 C70.33343178 51.73099815 65.53924183 56.30717211 60 60 C59.5153125 59.50371094 59.030625 59.00742187 58.53125 58.49609375 C57.8609375 57.81675781 57.190625 57.13742187 56.5 56.4375 C55.8503125 55.77621094 55.200625 55.11492187 54.53125 54.43359375 C52.5324319 52.51189054 50.5107474 50.71025313 48.40625 48.91015625 C42.48782792 43.77014732 37.06310498 38.12110988 31.56347656 32.54296875 C26.47821518 27.39175517 21.36952512 22.34061876 15.8671875 17.63134766 C12.61108099 14.78651192 9.55794091 11.74215985 6.5 8.6875 C5.86835938 8.06810547 5.23671875 7.44871094 4.5859375 6.81054688 C3.99039063 6.21693359 3.39484375 5.62332031 2.78125 5.01171875 C2.24564453 4.48022217 1.71003906 3.94872559 1.15820312 3.40112305 C0 2 0 2 0 0 Z " fill="#F8FBFC" transform="translate(223,236)"/>
<path d="M0 0 C0 3.51037291 -0.70972756 4.4280897 -2.640625 7.2890625 C-3.21071289 8.13984375 -3.78080078 8.990625 -4.36816406 9.8671875 C-5.29967285 11.23230469 -5.29967285 11.23230469 -6.25 12.625 C-6.88389648 13.5634375 -7.51779297 14.501875 -8.17089844 15.46875 C-20.17678842 33.18058769 -32.58228927 50.26427552 -46.6340332 66.41259766 C-48.00485384 68.00564069 -49.34883353 69.61816941 -50.6875 71.23828125 C-52.99212025 73.99058956 -55.42837075 76.49787424 -58 79 C-58.66 79.66 -59.32 80.32 -60 81 C-64.49465841 81 -66.46098493 80.49042148 -69.81640625 77.4375 C-70.750533 76.30691008 -71.66488317 75.15978893 -72.5625 74 C-73.06716797 73.37915527 -73.57183594 72.75831055 -74.09179688 72.11865234 C-75.17661833 70.78249405 -76.25404449 69.44030387 -77.32470703 68.09277344 C-79.01005894 65.98743439 -80.73021742 63.9164322 -82.46484375 61.8515625 C-92.69804951 49.64601515 -102.22420343 36.98820873 -111.4375 24 C-111.9217041 23.31808594 -112.4059082 22.63617188 -112.90478516 21.93359375 C-115.27734503 18.56001992 -117.5915108 15.15288846 -119.828125 11.6875 C-120.23836914 11.05199219 -120.64861328 10.41648437 -121.07128906 9.76171875 C-122.2973261 7.43598708 -122.40289991 5.57855945 -122 3 C-121.01 2.67 -120.02 2.34 -119 2 C-116.80136369 3.31303175 -114.84653989 4.65010485 -112.8125 6.1875 C-112.20535156 6.63367676 -111.59820312 7.07985352 -110.97265625 7.53955078 C-108.97272339 9.01460289 -106.98549369 10.50557785 -105 12 C-103.5768597 13.06645533 -102.15368223 14.13286107 -100.73046875 15.19921875 C-98.65230253 16.7571908 -96.57605054 18.31728432 -94.50708008 19.88745117 C-86.48064111 25.97459777 -86.48064111 25.97459777 -77.375 30.1875 C-76.45460938 30.51105469 -75.53421875 30.83460938 -74.5859375 31.16796875 C-73.73257813 31.44253906 -72.87921875 31.71710938 -72 32 C-71.39414062 32.20238281 -70.78828125 32.40476562 -70.1640625 32.61328125 C-62.82686074 33.92444185 -57.05353807 32.43513528 -50.1875 29.9375 C-49.30457275 29.62095459 -48.42164551 29.30440918 -47.51196289 28.97827148 C-40.71132199 26.45017313 -34.8259551 23.35079339 -29 19 C-28.0925 18.33742188 -27.185 17.67484375 -26.25 16.9921875 C-24.39879943 15.63978264 -22.54977743 14.28438982 -20.703125 12.92578125 C-14.87060972 8.77053554 -8.99096924 4.83972875 -2 3 C-2 2.34 -2 1.68 -2 1 C-1.34 0.67 -0.68 0.34 0 0 Z " fill="#021F38" transform="translate(345,479)"/>
<path d="M0 0 C3.64896169 0.24299257 5.43926556 2.06912216 7.94238281 4.5859375 C8.70286926 5.34342285 9.46335571 6.1009082 10.24688721 6.88134766 C11.46272491 8.11570557 11.46272491 8.11570557 12.703125 9.375 C13.54091492 10.21466309 14.37870483 11.05432617 15.24188232 11.91943359 C17.01047349 13.69474693 18.77546323 15.47365427 20.53710938 17.25585938 C23.24615064 19.9961063 25.96576548 22.72549077 28.6875 25.453125 C30.40166801 27.17646054 32.11523083 28.90039833 33.828125 30.625 C34.6467804 31.44790527 35.46543579 32.27081055 36.30889893 33.11865234 C37.43071564 34.25488037 37.43071564 34.25488037 38.57519531 35.4140625 C39.23819641 36.0838916 39.90119751 36.7537207 40.58428955 37.44384766 C42 39 42 39 42 40 C16.13164562 40.98646992 -9.70695764 41.12708542 -35.59161377 41.06866455 C-40.73555064 41.05821087 -45.87949294 41.05382106 -51.0234375 41.04882812 C-61.01563854 41.03828211 -71.00781658 41.02134565 -81 41 C-77.02306797 30.38233143 -66.03654965 21.92974998 -58.1875 14 C-57.37547119 13.17483887 -56.56344238 12.34967773 -55.72680664 11.49951172 C-45.29075427 1.0494916 -45.29075427 1.0494916 -40.46875 0.9453125 C-37.15496096 2.36101351 -35.08327213 4.37154808 -32.5 6.875 C-26.8209184 12.56155191 -26.8209184 12.56155191 -19.52734375 15.4453125 C-16.00534902 14.82474465 -14.26014009 13.19382254 -11.5625 10.875 C-10.12390625 9.65296875 -10.12390625 9.65296875 -8.65625 8.40625 C-6.51267315 6.46442156 -4.52307887 4.49562612 -2.5625 2.375 C-1.716875 1.59125 -0.87125 0.8075 0 0 Z " fill="#F5F7F9" transform="translate(303,296)"/>
<path d="M0 0 C2.06262442 0.28430949 2.06262442 0.28430949 3.98730469 -0.88549805 C5.76244098 -0.95279294 7.54025911 -0.95373523 9.31640625 -0.9230957 C10.43227112 -0.90622711 11.54813599 -0.88935852 12.69781494 -0.87197876 C14.51947174 -0.83613174 14.51947174 -0.83613174 16.37792969 -0.79956055 C17.62926697 -0.77832123 18.88060425 -0.75708191 20.16986084 -0.73519897 C22.82979156 -0.688832 25.48959294 -0.64043296 28.14941406 -0.58862305 C30.85313602 -0.53611028 33.55687432 -0.48748547 36.26074219 -0.44311523 C40.17489317 -0.37871246 44.08890727 -0.30882106 48.00292969 -0.23706055 C49.19307678 -0.217211 50.38322388 -0.19736145 51.60943604 -0.1769104 C74.34699641 0.27979386 74.34699641 0.27979386 81.98730469 3.11450195 C81.92480469 5.42700195 81.92480469 5.42700195 80.98730469 8.11450195 C65.7613621 16.86132004 43.33977113 15.42534474 26.29589844 15.38012695 C24.45337371 15.38148091 22.61084934 15.38342744 20.76832581 15.38592529 C16.93202263 15.38884747 13.09581357 15.38467734 9.25952148 15.37524414 C4.42109643 15.36390653 -0.41710733 15.37058258 -5.25552464 15.38211823 C-63.81989454 15.50096665 -63.81989454 15.50096665 -79.01269531 9.11450195 C-79.67269531 8.45450195 -80.33269531 7.79450195 -81.01269531 7.11450195 C-81.01269531 6.12450195 -81.01269531 5.13450195 -81.01269531 4.11450195 C-72.2839705 0.43128281 -63.4014429 0.32179808 -54.07519531 -0.07299805 C-52.37368429 -0.15319439 -50.67218696 -0.23368187 -48.97070312 -0.31445312 C-14.66943415 -1.87560455 -14.66943415 -1.87560455 0 0 Z " fill="#96B5CA" transform="translate(283.0126953125,558.885498046875)"/>
<path d="M0 0 C6.06507145 5.01566535 11.58903485 10.47338305 17.125 16.0625 C18.00542969 16.94744141 18.88585937 17.83238281 19.79296875 18.74414062 C22.74288679 21.70963139 25.69275761 24.67514242 28.63061523 27.65258789 C31.27380344 30.32236059 34.02349589 32.70383969 37 35 C35.58261511 38.25207092 33.87473588 40.31361067 31.3125 42.75 C28.6614298 45.32993236 26.14213433 47.92880963 23.75 50.75 C19.25651738 55.97859153 14.32202636 60.77659553 9.40527344 65.60302734 C8.06239542 66.93797314 6.75288181 68.30623236 5.4453125 69.67578125 C3.08493446 71.91927156 0.80547128 73.38074057 -2 75 C-1.89245253 65.81175783 -1.77980975 56.62359638 -1.66066074 47.43549728 C-1.60549532 43.16910098 -1.55208557 38.90269774 -1.50268555 34.63623047 C-1.45494782 30.51890407 -1.4026017 26.40165971 -1.34705925 22.28443146 C-1.3266783 20.71358533 -1.30795825 19.14271675 -1.29092598 17.57183075 C-1.26678748 15.37169788 -1.23674615 13.17171889 -1.20532227 10.97167969 C-1.18977798 9.71925476 -1.1742337 8.46682983 -1.15821838 7.17645264 C-1.02934645 4.58917055 -0.76529095 2.45731096 0 0 Z " fill="#F0F3F5" transform="translate(213,248)"/>
<path d="M0 0 C0 24.75 0 49.5 0 75 C-1.65 73.35 -3.3 71.7 -5 70 C-6.06018664 68.94405472 -7.12083254 67.88857015 -8.18212891 66.83374023 C-11.32464212 63.709005 -14.46411951 60.5812391 -17.60253906 57.45239258 C-18.9535389 56.10644839 -20.30543104 54.76139927 -21.65820312 53.41723633 C-23.62085801 51.46671716 -25.58025962 49.51298031 -27.5390625 47.55859375 C-28.14223297 46.96058456 -28.74540344 46.36257538 -29.36685181 45.7464447 C-35.05681455 40.05724364 -35.05681455 40.05724364 -37 37 C-36.83787321 33.36976966 -34.97566871 31.62632747 -32.4375 29.1875 C-31.70789063 28.48496094 -30.97828125 27.78242188 -30.2265625 27.05859375 C-27.6415786 24.66861741 -25.00704286 22.34826959 -22.33984375 20.05078125 C-19.30768673 17.39321458 -16.33925194 14.67037316 -13.375 11.9375 C-12.83657471 11.44282227 -12.29814941 10.94814453 -11.7434082 10.43847656 C-8.98720132 7.89194897 -6.29605605 5.3040601 -3.6640625 2.62890625 C-1 0 -1 0 0 0 Z " fill="#F8FDFE" transform="translate(354,249)"/>
<path d="M0 0 C2 0 2 0 3.58203125 1.20703125 C5.3445157 3.43562729 5.48385785 4.87723828 5.6875 7.6875 C5.75324219 8.49574219 5.81898438 9.30398438 5.88671875 10.13671875 C5.92410156 10.75160156 5.96148437 11.36648438 6 12 C6.66 12 7.32 12 8 12 C8.2475 12.7425 8.495 13.485 8.75 14.25 C9.821778 17.07161899 9.821778 17.07161899 12 18.875 C14 21 14 21 14.9375 24.4375 C16.16748509 28.56156765 17.8860964 30.12562745 21 33 C21.33 33.99 21.66 34.98 22 36 C22.66 36.33 23.32 36.66 24 37 C24.66666667 38.33333333 25.33333333 39.66666667 26 41 C26.66 41.33 27.32 41.66 28 42 C28.33 42.99 28.66 43.98 29 45 C32.44164373 48.82697153 32.44164373 48.82697153 37 51 C37.33 51.66 37.66 52.32 38 53 C38.94875 53.474375 39.8975 53.94875 40.875 54.4375 C43.64063745 55.82031872 44.93571884 56.84188788 47 59 C49.09989652 60.17574711 49.09989652 60.17574711 51 61 C51 61.66 51 62.32 51 63 C52.32 63 53.64 63 55 63 C55 63.66 55 64.32 55 65 C55.5671875 65.12246094 56.134375 65.24492187 56.71875 65.37109375 C59.92664767 66.2554628 62.78968521 67.72072182 65.78125 69.16015625 C68.22809796 70.23600592 68.22809796 70.23600592 72 70 C72 70.99 72 71.98 72 73 C72.886875 73.103125 73.77375 73.20625 74.6875 73.3125 C78.34735542 73.82681777 81.90437707 74.64982387 85.5 75.5 C89.99462865 76.558164 94.40920209 77.45990613 99 78 C100.8253125 78.2784375 100.8253125 78.2784375 102.6875 78.5625 C115.44601265 80.0778789 129.14509441 79.1799646 141.21875 74.65234375 C143 74 143 74 145.625 73.5 C148.27057278 73.0334309 148.27057278 73.0334309 151.5625 71.375 C155 70 155 70 157.4375 70.3125 C157.953125 70.539375 158.46875 70.76625 159 71 C159.0309375 70.1028125 159.0309375 70.1028125 159.0625 69.1875 C160 67 160 67 163.5 65.375 C164.655 64.92125 165.81 64.4675 167 64 C167.33 63.34 167.66 62.68 168 62 C166.95199219 62.433125 166.95199219 62.433125 165.8828125 62.875 C164.97273437 63.24625 164.06265625 63.6175 163.125 64 C162.22007812 64.37125 161.31515625 64.7425 160.3828125 65.125 C158 66 158 66 156 66 C156 65.34 156 64.68 156 64 C157.32 64 158.64 64 160 64 C160 63.34 160 62.68 160 62 C161.14339844 61.59007812 162.28679687 61.18015625 163.46484375 60.7578125 C164.95586631 60.21391748 166.44674433 59.66962611 167.9375 59.125 C168.69224609 58.85558594 169.44699219 58.58617187 170.22460938 58.30859375 C174.35097092 57.08380586 174.35097092 57.08380586 177 54 C178.6627175 53.32354399 180.33003969 52.65837284 182 52 C183.50207626 50.99164968 184.98182076 49.94924458 186.4375 48.875 C190.09981668 46.35179854 192.44403457 45.29908224 197 46 C197 45.01 197 44.02 197 43 C197.61875 42.9175 198.2375 42.835 198.875 42.75 C201.1346633 42.22094022 201.1346633 42.22094022 201.9375 40.25 C202.288125 39.5075 202.63875 38.765 203 38 C204.66666667 36.33333333 206.33333333 34.66666667 208 33 C209.05104383 31.36504293 210.05988318 29.70116376 211 28 C211.99 26.515 211.99 26.515 213 25 C213.66 25 214.32 25 215 25 C215.28875 24.113125 215.5775 23.22625 215.875 22.3125 C216.83148748 19.49617576 217.86798946 16.74916844 219 14 C219.66 14 220.32 14 221 14 C221.33 12.68 221.66 11.36 222 10 C222.66 10 223.32 10 224 10 C220.73063099 21.02999242 213.31000187 30.31045331 206 39 C205.34064453 39.84304688 205.34064453 39.84304688 204.66796875 40.703125 C201.81928415 44.32352683 198.57877758 47.26006694 195.078125 50.22265625 C193.76787904 51.34326135 192.48213453 52.49380535 191.234375 53.68359375 C185.41156283 59.16463216 178.73721957 63.0585594 171.81054688 66.97167969 C170.25141472 67.8572062 168.70978267 68.77341757 167.171875 69.6953125 C141.41572111 84.07959728 107.9235878 85.20477868 80.01391602 77.45922852 C49.75023298 68.39867635 24.18905961 49.58373737 8.78759766 21.81396484 C0 5.28743503 0 5.28743503 0 0 Z " fill="#DAE4E7" transform="translate(169,326)"/>
<path d="M0 0 C0.495 0.99 0.495 0.99 1 2 C1.66 2 2.32 2 3 2 C3.13277344 2.63808594 3.26554687 3.27617187 3.40234375 3.93359375 C3.66724609 5.17302734 3.66724609 5.17302734 3.9375 6.4375 C4.19853516 7.67306641 4.19853516 7.67306641 4.46484375 8.93359375 C4.80752994 10.97661204 4.80752994 10.97661204 6 12 C6.07205511 13.68608966 6.08386068 15.37500659 6.0625 17.0625 C6.05347656 17.98160156 6.04445313 18.90070313 6.03515625 19.84765625 C6.02355469 20.55792969 6.01195312 21.26820313 6 22 C6.66 22 7.32 22 8 22 C8.06058594 23.12019531 8.12117188 24.24039062 8.18359375 25.39453125 C8.26801424 26.86719984 8.35266149 28.33985544 8.4375 29.8125 C8.47681641 30.55048828 8.51613281 31.28847656 8.55664062 32.04882812 C8.74381035 35.23071342 8.98720793 37.96162378 10 41 C10.09617307 43.51181429 10.13934762 45.98916622 10.125 48.5 C10.12886719 49.17675781 10.13273437 49.85351562 10.13671875 50.55078125 C10.13062416 53.64073767 9.9844023 56.04679311 9 59 C8.8209919 61.1850354 8.68025014 63.37330871 8.5625 65.5625 C7.52240566 81.47759434 7.52240566 81.47759434 5 84 C4.50889744 86.18037702 4.05750481 88.3697471 3.625 90.5625 C2.48903129 95.99970945 1.15158736 100.88998003 -1 106 C-1.45375 107.08410156 -1.9075 108.16820312 -2.375 109.28515625 C-4.45498477 114.13396026 -6.88906779 118.7995718 -9.28125 123.5 C-10.469382 125.91946881 -11.5787338 128.30379497 -12.625 130.78125 C-13.88230789 133.72449348 -15.35790863 136.26318105 -17 139 C-18.01529541 141.32671865 -19.01488198 143.6603447 -20 146 C-20.98287008 148.00847365 -21.98377342 150.00819591 -23 152 C-23.68856734 153.37446581 -24.3760172 154.74949187 -25.0625 156.125 C-26.0661718 158.1323436 -27.0707958 160.133698 -28.12109375 162.1171875 C-29.14099613 163.95573676 -29.14099613 163.95573676 -29 166 C-29.598125 166.433125 -30.19625 166.86625 -30.8125 167.3125 C-33.40057028 169.30901136 -34.38201122 171.15769368 -36 174 C-36.92425781 175.61841797 -36.92425781 175.61841797 -37.8671875 177.26953125 C-38.53645889 178.45052052 -39.2057297 179.63151011 -39.875 180.8125 C-43.41470901 187.03047009 -47.06564804 193.12778042 -51.0625 199.0625 C-52.83424533 201.74869453 -54.42203599 204.47099741 -55.99609375 207.2734375 C-57.54103026 209.93048783 -59.28288874 212.45202846 -61 215 C-61.680625 216.175625 -61.680625 216.175625 -62.375 217.375 C-63.76279315 219.61681971 -65.21870956 221.65530399 -66.8125 223.75 C-69.55654899 227.35665845 -72.08098523 231.06988557 -74.5703125 234.85546875 C-75.8197642 236.72964629 -77.10932661 238.55635735 -78.4375 240.375 C-82.41950827 245.89053248 -86.08186869 251.67490167 -89.48046875 257.56640625 C-91.03184497 260.05100107 -92.73201689 262.13564145 -94.6875 264.3125 C-95.62142578 265.35857422 -95.62142578 265.35857422 -96.57421875 266.42578125 C-97.04472656 266.94527344 -97.51523437 267.46476562 -98 268 C-98.495 266.515 -98.495 266.515 -99 265 C-97.59992654 262.72903851 -96.17503829 260.67476321 -94.5625 258.5625 C-89.79741964 252.19670835 -85.3879311 245.63084712 -81 239 C-79.71496526 237.08107715 -78.42853231 235.16308982 -77.140625 233.24609375 C-68.89669429 220.94876625 -60.81998255 208.57084592 -53 196 C-52.46777832 195.14809082 -51.93555664 194.29618164 -51.38720703 193.41845703 C-47.56276039 187.29642555 -43.76892305 181.15635912 -40 175 C-39.34717041 173.93845703 -39.34717041 173.93845703 -38.68115234 172.85546875 C-31.05508404 160.40227754 -24.3429254 147.47893689 -17.75048828 134.45458984 C-16.61268723 132.20913868 -15.46818972 129.96706377 -14.31591797 127.72900391 C4.14233332 91.78980031 13.39849586 49.63258015 1.875 9.8125 C0 3.27737226 0 3.27737226 0 0 Z " fill="#D2EDF9" transform="translate(426,242)"/>
<path d="M0 0 C-0.33 0.99 -0.66 1.98 -1 3 C-2.93579102 3.75195312 -2.93579102 3.75195312 -5.50390625 4.28125 C-6.4578125 4.48210205 -7.41171875 4.6829541 -8.39453125 4.88989258 C-9.43996094 5.09122803 -10.48539063 5.29256348 -11.5625 5.5 C-12.65820312 5.71358154 -13.75390625 5.92716309 -14.8828125 6.1472168 C-18.25158255 6.78659659 -21.62476171 7.39581872 -25 8 C-25.8957373 8.17096191 -26.79147461 8.34192383 -27.71435547 8.51806641 C-57.26994754 14.00736923 -91.50177758 13.6433858 -121 8 C-121.95326172 7.82355957 -122.90652344 7.64711914 -123.88867188 7.46533203 C-129.61225513 6.39568802 -135.31094647 5.23976056 -141 4 C-141 3.67 -141 3.34 -141 3 C-139.07815132 3.1053582 -139.07815132 3.1053582 -137.11747742 3.21284485 C-124.65996596 3.86794477 -112.24288594 4.16271992 -99.76953125 4.16796875 C-97.91452511 4.17119834 -96.05951921 4.17456353 -94.20451355 4.17805481 C-90.35679535 4.18397138 -86.50909937 4.18590223 -82.66137695 4.18530273 C-77.7839691 4.1852008 -72.90670576 4.19891927 -68.02933216 4.21607494 C-64.21212636 4.22729942 -60.39495459 4.22921887 -56.57773399 4.22869301 C-54.78119084 4.2298549 -52.98464626 4.2341727 -51.18811989 4.24202538 C-35.69605632 4.30348939 -20.52325977 3.53564216 -5.50390625 -0.51171875 C-3 -1 -3 -1 0 0 Z " fill="#E8EFF4" transform="translate(363,569)"/>
<path d="M0 0 C14.95825602 6.7741987 29.25322217 23.51689641 38 37 C38.79408552 38.16549086 39.58836892 39.33084693 40.3828125 40.49609375 C49.53155345 54.20774943 55.83024782 69.14017453 60.4375 84.9375 C60.67243164 85.74018311 60.90736328 86.54286621 61.14941406 87.36987305 C70.65100646 122.07179995 65.96259919 164.18735976 49 196 C48.67 196 48.34 196 48 196 C47.53807875 191.07284004 49.1724717 187.49267375 51 183 C51.66 183 52.32 183 53 183 C53.103125 182.030625 53.20625 181.06125 53.3125 180.0625 C53.71058567 177.27037134 54.36115482 174.77739171 55.3125 172.125 C62.02756849 152.60521758 63.44560333 132.49775312 63 112 C62.01 111.505 62.01 111.505 61 111 C61.66 109.68 62.32 108.36 63 107 C62.34 107 61.68 107 61 107 C61.06960938 106.43796875 61.13921875 105.8759375 61.2109375 105.296875 C62.0302667 92.57776463 56.70256166 79.1904051 51.6640625 67.6796875 C51 66 51 66 51 64 C50.01 63.505 50.01 63.505 49 63 C48.29894157 61.34750513 47.64199649 59.67632417 47 58 C43.29044853 49.89661086 38.56595187 42.35734473 33.75 34.875 C33.27046875 34.12992188 32.7909375 33.38484375 32.296875 32.6171875 C31.86890625 32.08351562 31.4409375 31.54984375 31 31 C30.34 31 29.68 31 29 31 C28.4225 29.865625 27.845 28.73125 27.25 27.5625 C26.1982807 25.61882539 26.1982807 25.61882539 25 24 C24.34 23.835 23.68 23.67 23 23.5 C22.34 23.335 21.68 23.17 21 23 C19.96857723 21.25947408 18.94241852 19.5132645 18.015625 17.71484375 C16.72725397 15.53947882 15.07057007 14.40502969 13 13 C13 12.34 13 11.68 13 11 C12.4225 10.71125 11.845 10.4225 11.25 10.125 C10.5075 9.75375 9.765 9.3825 9 9 C8.360625 8.731875 7.72125 8.46375 7.0625 8.1875 C4.20712332 6.54349524 2.19453779 4.43837533 0 2 C0 1.34 0 0.68 0 0 Z " fill="#349CDB" transform="translate(368,165)"/>
<path d="M0 0 C2 0 2 0 3.58203125 1.20703125 C5.3445157 3.43562729 5.48385785 4.87723828 5.6875 7.6875 C5.75324219 8.49574219 5.81898438 9.30398438 5.88671875 10.13671875 C5.92410156 10.75160156 5.96148437 11.36648438 6 12 C6.66 12 7.32 12 8 12 C8.2475 12.7425 8.495 13.485 8.75 14.25 C9.821778 17.07161899 9.821778 17.07161899 12 18.875 C14 21 14 21 14.9375 24.4375 C16.16748509 28.56156765 17.8860964 30.12562745 21 33 C21.33 33.99 21.66 34.98 22 36 C22.66 36.33 23.32 36.66 24 37 C24.66666667 38.33333333 25.33333333 39.66666667 26 41 C26.66 41.33 27.32 41.66 28 42 C28.33 42.99 28.66 43.98 29 45 C32.44164373 48.82697153 32.44164373 48.82697153 37 51 C37.33 51.66 37.66 52.32 38 53 C38.94875 53.474375 39.8975 53.94875 40.875 54.4375 C43.64063745 55.82031872 44.93571884 56.84188788 47 59 C49.09989652 60.17574711 49.09989652 60.17574711 51 61 C51 61.66 51 62.32 51 63 C52.32 63 53.64 63 55 63 C55 63.66 55 64.32 55 65 C55.5671875 65.12246094 56.134375 65.24492187 56.71875 65.37109375 C59.92664767 66.2554628 62.78968521 67.72072182 65.78125 69.16015625 C68.22809796 70.23600592 68.22809796 70.23600592 72 70 C72 70.99 72 71.98 72 73 C72.886875 73.103125 73.77375 73.20625 74.6875 73.3125 C78.34735542 73.82681777 81.90437707 74.64982387 85.5 75.5 C89.99462865 76.558164 94.40920209 77.45990613 99 78 C100.8871875 78.2784375 100.8871875 78.2784375 102.8125 78.5625 C106.64639364 79.04081687 110.39963899 79.01682693 114.2578125 78.96875 C119.190747 79.02496578 124.09209114 79.52776135 129 80 C129 80.33 129 80.66 129 81 C97.05820144 85.41067152 64.66258702 76.08230685 38.78125 57 C21.10783989 43.31853058 7.43471618 24.12051214 0 3 C0 2.01 0 1.02 0 0 Z " fill="#C2D4E5" transform="translate(169,326)"/>
<path d="M0 0 C0.66 0 1.32 0 2 0 C2.3403125 0.90878906 2.680625 1.81757813 3.03125 2.75390625 C5.85610969 10.13726536 8.99405531 17.14564362 12.81518555 24.06591797 C16.14146004 30.13105935 19.06311824 36.36750629 21.94262695 42.65527344 C23.69793571 46.44524411 25.47430022 49.66161449 28 53 C28 53.99 28 54.98 28 56 C28.66 56 29.32 56 30 56 C30.39316406 56.81082031 30.78632813 57.62164062 31.19140625 58.45703125 C33.31336657 62.6138736 35.59439994 66.65235444 37.9375 70.6875 C38.36740234 71.44611328 38.79730469 72.20472656 39.24023438 72.98632812 C41.46486225 76.81106771 43.23516114 79.53012849 47 82 C47.35919668 83.66128463 47.68911632 85.32900023 48 87 C49.28189588 89.03335209 50.62156808 91.03081154 52 93 C52.72037385 94.24310001 53.42880522 95.49319893 54.125 96.75 C55.79338423 99.96613661 55.79338423 99.96613661 58 102 C58.68242152 103.25156659 59.32471499 104.52540537 59.9375 105.8125 C62.45973697 111.81033176 62.45973697 111.81033176 67 116 C68.42896571 118.20840155 69.71235842 120.47534177 70.9765625 122.78125 C73.44343081 127.22537916 75.06976681 130.0348834 79.625 132.3125 C84.01467758 134.50733879 87.95487595 137.23390565 92 140 C93.485 140.99 93.485 140.99 95 142 C96 143 97 144 98 145 C99.485 145.99 99.485 145.99 101 147 C101 147.66 101 148.32 101 149 C97.11390189 147.24933204 93.72187742 144.81675994 90.25 142.375 C89.34701172 141.74464844 89.34701172 141.74464844 88.42578125 141.1015625 C86.94886957 140.07006863 85.47420806 139.03535421 84 138 C81.66924071 138.95865509 81.66924071 138.95865509 80 142 C59.31449063 110.68054936 59.31449063 110.68054936 50 95 C49.65777405 94.42427246 49.3155481 93.84854492 48.96295166 93.25537109 C45.26937032 87.04153602 41.57635617 80.82736989 37.8984375 74.60424805 C37.11606132 73.28163421 36.33351127 71.95912321 35.55078125 70.63671875 C35.16750671 69.98902023 34.78423218 69.34132172 34.38934326 68.67399597 C31.90367093 64.48640253 29.35947552 60.34071176 26.78515625 56.20703125 C23.31429065 50.58956744 20.14465657 44.87059682 17.125 39 C16.62250732 38.02812744 16.12001465 37.05625488 15.60229492 36.05493164 C12.0916701 29.22205698 8.65849311 22.35247076 5.3125 15.4375 C4.89049316 14.57576172 4.46848633 13.71402344 4.03369141 12.82617188 C1.99127874 8.54196207 0.45802622 4.78986745 0 0 Z " fill="#1D67AD" transform="translate(142,344)"/>
<path d="M0 0 C16.17 0 32.34 0 49 0 C49 0.66 49 1.32 49 2 C50.299375 1.938125 51.59875 1.87625 52.9375 1.8125 C57.23114142 1.8125 60.53747279 2.65427374 64.53515625 4.13671875 C70.83360415 6.34267277 77.4544588 7.73389167 84 9 C84.33 9.99 84.66 10.98 85 12 C86.32 12 87.64 12 89 12 C89 12.66 89 13.32 89 14 C89.721875 14.12375 90.44375 14.2475 91.1875 14.375 C93.98200584 14.9960013 96.41259045 15.77816771 99 17 C99.33 17.66 99.66 18.32 100 19 C101.97522846 20.04808041 103.97481509 21.0520411 106 22 C106 22.66 106 23.32 106 24 C106.99 23.67 107.98 23.34 109 23 C109.99 25.475 109.99 25.475 111 28 C107.62470755 26.75554435 104.8567334 25.34239851 101.9375 23.25 C71.92555559 3.04683742 32.17754572 -2.18433223 -3 4 C-19.43057386 7.510407 -34.84174487 13.07460256 -49.70703125 20.8984375 C-52 22 -52 22 -54 22 C-54 21.34 -54 20.68 -54 20 C-51.69 19.34 -49.38 18.68 -47 18 C-47 17.34 -47 16.68 -47 16 C-46.05640625 15.63648438 -46.05640625 15.63648438 -45.09375 15.265625 C-40.99054427 13.65894806 -36.99467557 12.05194298 -33.125 9.9375 C-28.91431347 7.75985202 -24.55858809 6.78000067 -19.95703125 5.7265625 C-17.29737198 5.0730663 -14.81548399 4.26070997 -12.25 3.3125 C-8.0217285 1.82835352 -4.45900014 1.75678181 0 2 C0 1.34 0 0.68 0 0 Z " fill="#ACE2F7" transform="translate(259,137)"/>
<path d="M0 0 C0.33 0.66 0.66 1.32 1 2 C1.66 2 2.32 2 3 2 C3.19916016 2.95712891 3.19916016 2.95712891 3.40234375 3.93359375 C3.57894531 4.75988281 3.75554687 5.58617187 3.9375 6.4375 C4.11152344 7.26121094 4.28554688 8.08492187 4.46484375 8.93359375 C4.80752994 10.97661204 4.80752994 10.97661204 6 12 C6.07205511 13.68608966 6.08386068 15.37500659 6.0625 17.0625 C6.05347656 17.98160156 6.04445313 18.90070313 6.03515625 19.84765625 C6.02355469 20.55792969 6.01195312 21.26820313 6 22 C6.66 22 7.32 22 8 22 C8.06058594 23.12019531 8.12117188 24.24039062 8.18359375 25.39453125 C8.26801424 26.86719984 8.35266149 28.33985544 8.4375 29.8125 C8.47681641 30.55048828 8.51613281 31.28847656 8.55664062 32.04882812 C8.74381035 35.23071342 8.98720793 37.96162378 10 41 C10.09617307 43.51181429 10.13934762 45.98916622 10.125 48.5 C10.13080078 49.51513672 10.13080078 49.51513672 10.13671875 50.55078125 C10.13062416 53.64073767 9.9844023 56.04679311 9 59 C8.8209919 61.1850354 8.68025014 63.37330871 8.5625 65.5625 C7.52240566 81.47759434 7.52240566 81.47759434 5 84 C4.50889744 86.18037702 4.05750481 88.3697471 3.625 90.5625 C2.48903129 95.99970945 1.15158736 100.88998003 -1 106 C-1.45375 107.08410156 -1.9075 108.16820312 -2.375 109.28515625 C-4.45498477 114.13396026 -6.88906779 118.7995718 -9.28125 123.5 C-10.46764077 125.91592302 -11.57395119 128.2953214 -12.6171875 130.76953125 C-14 134 -14 134 -15.625 136.6875 C-16.9090104 138.84697204 -17.54605609 140.54870286 -18 143 C-18.99 143 -19.98 143 -21 143 C-19.63663967 138.57168552 -17.88786295 134.59416834 -15.76953125 130.4765625 C-15.12649257 129.20816571 -14.48495026 127.93900944 -13.84472656 126.66918945 C-13.51218872 126.00972321 -13.17965088 125.35025696 -12.83703613 124.67080688 C-5.90008126 110.81900645 -0.34164885 97.19714118 3 82 C3.18481934 81.18160645 3.36963867 80.36321289 3.56005859 79.52001953 C8.34932413 57.24743325 8.21462198 31.71941595 1.875 9.8125 C0 3.27737226 0 3.27737226 0 0 Z " fill="#C3E6F7" transform="translate(426,242)"/>
<path d="M0 0 C1.37074532 1.29484085 2.72076362 2.6146806 4 4 C-0.83010873 3.56089921 -2.77420123 2.57142007 -6 -1 C-6.66 -1 -7.32 -1 -8 -1 C-8.45375 -1.474375 -8.9075 -1.94875 -9.375 -2.4375 C-11.22977487 -4.22093737 -12.50135592 -4.5691993 -15 -5 C-15 -5.66 -15 -6.32 -15 -7 C-15.69867188 -7.20496094 -16.39734375 -7.40992188 -17.1171875 -7.62109375 C-18.02726562 -7.89050781 -18.93734375 -8.15992188 -19.875 -8.4375 C-20.77992188 -8.70433594 -21.68484375 -8.97117188 -22.6171875 -9.24609375 C-25 -10 -25 -10 -27 -11 C-27.33 -10.34 -27.66 -9.68 -28 -9 C-28 -9.66 -28 -10.32 -28 -11 C-28.66 -11 -29.32 -11 -30 -11 C-30 -11.66 -30 -12.32 -30 -13 C-31.175625 -12.95875 -32.35125 -12.9175 -33.5625 -12.875 C-37.65768129 -12.875 -41.12554703 -13.60519693 -45 -15 C-45.99 -15.99 -45.99 -15.99 -47 -17 C-49.61545866 -17.65207285 -49.61545866 -17.65207285 -52.625 -18.0625 C-53.62789063 -18.21847656 -54.63078125 -18.37445313 -55.6640625 -18.53515625 C-56.76492188 -18.68855469 -57.86578125 -18.84195313 -59 -19 C-60.20269531 -19.18046875 -61.40539062 -19.3609375 -62.64453125 -19.546875 C-68.10376589 -20.21398462 -73.56946713 -20.19165164 -79.0625 -20.1875 C-80.16779053 -20.18669434 -81.27308105 -20.18588867 -82.41186523 -20.18505859 C-92.25150041 -20.11165533 -101.83447689 -19.46854026 -111.375 -16.875 C-115.675812 -15.83687297 -119.60373307 -15.81682221 -124 -16 C-89.43166695 -34.60754818 -30.20515398 -21.6565255 0 0 Z " fill="#24A0DD" transform="translate(364,161)"/>
<path d="M0 0 C0.66 0.33 1.32 0.66 2 1 C1.443125 1.66902344 0.88625 2.33804688 0.3125 3.02734375 C-8.51808978 14.14016365 -14.0136204 26.28554781 -18.375 39.75 C-18.73307739 40.84646851 -18.73307739 40.84646851 -19.09838867 41.96508789 C-22.56534621 53.29884167 -23.38647486 64.76557419 -23.375 76.5625 C-23.37701416 77.86356689 -23.37902832 79.16463379 -23.38110352 80.50512695 C-23.28062101 90.13896154 -22.10371455 99.05782938 -19.77734375 108.38671875 C-19 112 -19 112 -20 115 C-23.43861293 106.0908665 -25.32725817 98.62755336 -25.625 89.0625 C-25.66294678 88.02867187 -25.70089355 86.99484375 -25.73999023 85.9296875 C-26.11595477 74.62176546 -26.09851427 63.31246899 -26 52 C-25.01 51.505 -25.01 51.505 -24 51 C-23.63473747 48.67145135 -23.30649316 46.33701038 -23 44 C-22.3711811 41.98777953 -21.70381157 39.98723268 -21 38 C-20.690625 36.865625 -20.38125 35.73125 -20.0625 34.5625 C-18.20000635 28.31766835 -15.4047004 22.79805902 -12.20703125 17.15625 C-10.71040941 14.48267313 -9.34173115 11.75407972 -8 9 C-7.34 9 -6.68 9 -6 9 C-6 8.01 -6 7.02 -6 6 C-4.625 4.3125 -4.625 4.3125 -3 3 C-2.34 3 -1.68 3 -1 3 C-0.67 2.01 -0.34 1.02 0 0 Z " fill="#2687C5" transform="translate(187,212)"/>
<path d="M0 0 C0.84828369 0.07839111 1.69656738 0.15678223 2.57055664 0.23754883 C9.91016929 0.99347023 17.15999062 2.05237648 23.875 5.25 C24.62910156 5.60320312 25.38320313 5.95640625 26.16015625 6.3203125 C26.70542969 6.58585938 27.25070312 6.85140625 27.8125 7.125 C27.8125 7.785 27.8125 8.445 27.8125 9.125 C27.25304687 8.94324219 26.69359375 8.76148438 26.1171875 8.57421875 C13.46782203 4.60858167 1.05318222 2.47214483 -12.1875 2.125 C-13.40010498 2.09212891 -13.40010498 2.09212891 -14.63720703 2.05859375 C-24.98990374 1.82110119 -35.02215466 1.90133071 -45.1875 4.125 C-46.363125 4.38152344 -47.53875 4.63804687 -48.75 4.90234375 C-59.82707623 7.59084246 -70.05163379 11.941595 -80.1875 17.125 C-80.1875 16.135 -80.1875 15.145 -80.1875 14.125 C-77.54011084 12.6643715 -76.29301666 12.125 -73.1875 12.125 C-73.1875 11.465 -73.1875 10.805 -73.1875 10.125 C-69.26311214 8.46010818 -65.29649581 7.25295963 -61.1875 6.125 C-61.1875 5.465 -61.1875 4.805 -61.1875 4.125 C-59.393125 3.939375 -59.393125 3.939375 -57.5625 3.75 C-53.16045422 3.2036468 -49.17086319 2.11668159 -45.1875 0.125 C-30.26963859 -1.72262504 -14.93388066 -1.39028109 0 0 Z " fill="#1997D6" transform="translate(301.1875,167.875)"/>
<path d="M0 0 C3.33210645 1.85978034 6.6109786 3.75263605 9.83203125 5.80078125 C36.07587998 22.46611059 65.8137079 30.8484577 96.8515625 25.4375 C100.26924846 24.96258582 103.55382686 24.9305557 107 25 C104.25589773 28.14363682 102.10484735 28.53246522 97.94775391 28.86523438 C92.1160594 29.1318482 86.29069347 29.22506884 80.45385742 29.24023438 C78.20258546 29.249935 75.95223062 29.28104072 73.70117188 29.3125 C65.01221556 29.37614396 57.36359119 28.61321482 49 26 C47.73800781 25.65582031 46.47601563 25.31164062 45.17578125 24.95703125 C36.46419385 22.33176813 28.03245175 19.28782312 19.98828125 15.015625 C17.88365564 13.87792049 17.88365564 13.87792049 15 13 C15 12.34 15 11.68 15 11 C14.01 11 13.02 11 12 11 C12 10.34 12 9.68 12 9 C10.35 8.67 8.7 8.34 7 8 C6.67 7.01 6.34 6.02 6 5 C4.35448038 4.28272222 2.68577711 3.61674772 1 3 C0.34 2.34 -0.32 1.68 -1 1 C-0.67 0.67 -0.34 0.34 0 0 Z " fill="#1159A1" transform="translate(204,380)"/>
<path d="M0 0 C14.95825602 6.7741987 29.25322217 23.51689641 38 37 C38.79408552 38.16549086 39.58836892 39.33084693 40.3828125 40.49609375 C45.35059711 47.94681421 49.39376977 55.58658594 52.9375 63.8125 C53.30286865 64.65925293 53.6682373 65.50600586 54.04467773 66.37841797 C56.57066045 72.4594219 58.39974944 78.61649931 60 85 C56.84873818 82.89915879 56.5396181 82.50420992 55.39453125 79.15625 C55.13349609 78.40472656 54.87246094 77.65320313 54.60351562 76.87890625 C54.34248047 76.09386719 54.08144531 75.30882812 53.8125 74.5 C53.53986328 73.71496094 53.26722656 72.92992187 52.98632812 72.12109375 C51 66.31643562 51 66.31643562 51 64 C50.01 63.505 50.01 63.505 49 63 C48.29894157 61.34750513 47.64199649 59.67632417 47 58 C43.29044853 49.89661086 38.56595187 42.35734473 33.75 34.875 C33.27046875 34.12992188 32.7909375 33.38484375 32.296875 32.6171875 C31.86890625 32.08351562 31.4409375 31.54984375 31 31 C30.34 31 29.68 31 29 31 C28.4225 29.865625 27.845 28.73125 27.25 27.5625 C26.1982807 25.61882539 26.1982807 25.61882539 25 24 C24.34 23.835 23.68 23.67 23 23.5 C22.34 23.335 21.68 23.17 21 23 C19.96857723 21.25947408 18.94241852 19.5132645 18.015625 17.71484375 C16.72725397 15.53947882 15.07057007 14.40502969 13 13 C13 12.34 13 11.68 13 11 C12.4225 10.71125 11.845 10.4225 11.25 10.125 C10.5075 9.75375 9.765 9.3825 9 9 C8.360625 8.731875 7.72125 8.46375 7.0625 8.1875 C4.20712332 6.54349524 2.19453779 4.43837533 0 2 C0 1.34 0 0.68 0 0 Z " fill="#43A5DF" transform="translate(368,165)"/>
<path d="M0 0 C-3.45707085 1.05344219 -5.23666826 0.65799439 -8.6640625 -0.45703125 C-13.00073019 -1.46505267 -17.45611655 -1.52076149 -21.890625 -1.75390625 C-25 -2 -25 -2 -28 -3 C-32.46565774 -3.2069044 -36.93393107 -3.18579774 -41.40380859 -3.18530273 C-43.59623141 -3.18747154 -45.78813611 -3.20558643 -47.98046875 -3.22460938 C-55.22019118 -3.25361947 -62.00044148 -3.07823537 -69 -1 C-69.33 -0.67 -69.66 -0.34 -70 0 C-71.051875 0.12375 -72.10375 0.2475 -73.1875 0.375 C-77.09667844 1.01584892 -79.51145871 2.18595853 -83 4 C-85.97360214 5.08503211 -88.9822756 6.04582429 -92 7 C-92.99 7.33 -93.98 7.66 -95 8 C-95.66 7.34 -96.32 6.68 -97 6 C-89.22257319 2.30794257 -81.51429107 -0.61916155 -73.1875 -2.8125 C-72.41237061 -3.0189917 -71.63724121 -3.2254834 -70.83862305 -3.43823242 C-49.65867915 -8.80135551 -20.09949882 -8.9042941 0 0 Z " fill="#C4FAFE" transform="translate(324,175)"/>
<path d="M0 0 C0.66 0 1.32 0 2 0 C-1.26936901 11.02999242 -8.68999813 20.31045331 -16 29 C-16.43957031 29.56203125 -16.87914062 30.1240625 -17.33203125 30.703125 C-20.18071585 34.32352683 -23.42122242 37.26006694 -26.921875 40.22265625 C-28.23212096 41.34326135 -29.51786547 42.49380535 -30.765625 43.68359375 C-35.10032416 47.76386491 -39.79371264 50.87874423 -44.875 53.9375 C-45.54217041 54.33952637 -46.20934082 54.74155273 -46.89672852 55.15576172 C-51.73515302 58 -51.73515302 58 -54 58 C-53.25675659 55.60510457 -52.52942646 54.29222384 -50.30859375 53.06640625 C-48.55926499 52.32780077 -46.78065851 51.65950315 -45 51 C-45 50.34 -45 49.68 -45 49 C-44.38511719 48.78085937 -43.77023437 48.56171875 -43.13671875 48.3359375 C-37.74724888 46.31868637 -37.74724888 46.31868637 -34.25 41.9375 C-33.8375 40.968125 -33.425 39.99875 -33 39 C-30.04473066 36.783548 -28.71253164 36 -25 36 C-25 35.01 -25 34.02 -25 33 C-24.38125 32.9175 -23.7625 32.835 -23.125 32.75 C-20.8653367 32.22094022 -20.8653367 32.22094022 -20.0625 30.25 C-19.5365625 29.13625 -19.5365625 29.13625 -19 28 C-17.33333333 26.33333333 -15.66666667 24.66666667 -14 23 C-12.94895617 21.36504293 -11.94011682 19.70116376 -11 18 C-10.34 17.01 -9.68 16.02 -9 15 C-8.34 15 -7.68 15 -7 15 C-6.71125 14.113125 -6.4225 13.22625 -6.125 12.3125 C-5.16851252 9.49617576 -4.13201054 6.74916844 -3 4 C-2.34 4 -1.68 4 -1 4 C-0.67 2.68 -0.34 1.36 0 0 Z " fill="#CDF2FC" transform="translate(391,336)"/>
<path d="M0 0 C0.33 0 0.66 0 1 0 C2.27008196 9.08597097 1.85693424 17.94652987 1.31860352 27.07641602 C1.23823853 28.52359009 1.23823853 28.52359009 1.15625 30 C1.10275391 30.86625 1.04925781 31.7325 0.99414062 32.625 C0.9998822 34.95225098 1.37028163 36.77276078 2 39 C2.14895079 40.831543 2.27142999 42.66533127 2.375 44.5 C2.85485907 50.88763226 4.26560516 56.84780697 6 63 C5.34 63 4.68 63 4 63 C3.505 63.99 3.505 63.99 3 65 C2.35118552 62.45906145 1.70587101 59.91731727 1.0625 57.375 C0.88009766 56.66214844 0.69769531 55.94929688 0.50976562 55.21484375 C0.33251953 54.51230469 0.15527344 53.80976563 -0.02734375 53.0859375 C-0.18968506 52.4470459 -0.35202637 51.8081543 -0.51928711 51.14990234 C-2.07074773 44.21127247 -2.1861682 37.53140469 -2.18530273 30.4440918 C-2.18746743 28.46724292 -2.20591427 26.49043353 -2.22460938 24.51367188 C-2.23718962 16.15619359 -1.53845801 8.21527859 0 0 Z " fill="#DBE4EA" transform="translate(165,261)"/>
<path d="M0 0 C3.23921558 3.23921558 4.07376916 7.52485625 5.5 11.8125 C5.80808594 12.69615234 6.11617188 13.57980469 6.43359375 14.49023438 C10.46578804 26.52624779 11.32760395 38.30745714 11.25 50.9375 C11.25773437 52.19240234 11.26546875 53.44730469 11.2734375 54.74023438 C11.22822362 76.65766458 11.22822362 76.65766458 7 83 C7.0707373 82.34402832 7.14147461 81.68805664 7.21435547 81.01220703 C8.04406739 72.41324184 8.15367414 63.88027225 8.13037109 55.25097656 C8.12493069 52.84433928 8.13039063 50.43788222 8.13671875 48.03125 C8.13605925 46.49739542 8.13478076 44.96354096 8.1328125 43.4296875 C8.13483673 42.71207245 8.13686096 41.9944574 8.13894653 41.25509644 C8.17823557 37.50240561 8.17823557 37.50240561 7 34 C6.68672976 31.18056784 6.48970036 28.36021918 6.28125 25.53125 C6.14867388 23.00925996 6.14867388 23.00925996 5 21 C4.960008 19.00039988 4.95653201 16.99952758 5 15 C4.34 15 3.68 15 3 15 C0.5978396 10.1956792 0.38877771 5.26896105 0 0 Z " fill="#D1F8FE" transform="translate(391,236)"/>
<path d="M0 0 C0.66 0 1.32 0 2 0 C1.688288 2.52093298 1.37565098 5.0417457 1.0625 7.5625 C0.97548828 8.26697266 0.88847656 8.97144531 0.79882812 9.69726562 C0.71181641 10.39658203 0.62480469 11.09589844 0.53515625 11.81640625 C0.44717773 12.52708252 0.35919922 13.23775879 0.26855469 13.9699707 C0.03434664 15.74037066 -0.25006444 17.50398472 -0.54296875 19.265625 C-3.56839598 43.98620989 0.18546576 69.50955412 8.86328125 92.75390625 C10 96 10 96 10 99 C9.34 99 8.68 99 8 99 C7.01249341 96.31531083 6.03487645 93.62766735 5.0625 90.9375 C4.78470703 90.18533203 4.50691406 89.43316406 4.22070312 88.65820312 C2.57177235 84.06901024 1.59711686 79.83350382 1 75 C0.67 74.67 0.34 74.34 0 74 C-0.20768229 72.52603261 -0.36716017 71.0450874 -0.5 69.5625 C-0.79146944 66.15502495 -0.79146944 66.15502495 -2 63 C-3.21358639 54.07282816 -3.15233979 45.0527347 -3.125 36.0625 C-3.12886719 34.79470703 -3.13273438 33.52691406 -3.13671875 32.22070312 C-3.11303072 9.11303072 -3.11303072 9.11303072 -1 7 C-0.63239269 4.67182036 -0.29758419 2.3381615 0 0 Z " fill="#B6E2FA" transform="translate(134,254)"/>
<path d="M0 0 C0.66 0 1.32 0 2 0 C2.3403125 0.90878906 2.680625 1.81757813 3.03125 2.75390625 C5.85610969 10.13726536 8.99405531 17.14564362 12.81518555 24.06591797 C16.14146004 30.13105935 19.06311824 36.36750629 21.94262695 42.65527344 C23.69793571 46.44524411 25.47430022 49.66161449 28 53 C28 53.99 28 54.98 28 56 C28.66 56 29.32 56 30 56 C30.4125 56.86625 30.825 57.7325 31.25 58.625 C32.92519842 62.05554529 32.92519842 62.05554529 35.25 65.125 C37 68 37 68 36.609375 70.1796875 C36.30773437 71.08074219 36.30773437 71.08074219 36 72 C27.0441271 57.19643974 18.39818007 42.30814933 10.6875 26.8125 C10.37593964 26.18905701 10.06437927 25.56561401 9.74337769 24.92327881 C0 5.36407956 0 5.36407956 0 0 Z " fill="#1D72BB" transform="translate(142,344)"/>
<path d="M0 0 C-1 3 -1 3 -2.63671875 3.9921875 C-3.65185547 4.42917969 -3.65185547 4.42917969 -4.6875 4.875 C-7.5409106 6.19979778 -9.83162957 7.53907306 -12.1875 9.625 C-15 12 -15 12 -17.28515625 12.83203125 C-20.78320482 14.33694711 -23.40863403 16.58705475 -26.25 19.0625 C-26.82137695 19.55492187 -27.39275391 20.04734375 -27.98144531 20.5546875 C-35.85464311 27.4055645 -42.73833161 34.66356921 -49.15234375 42.91015625 C-49.76207031 43.59980469 -50.37179688 44.28945312 -51 45 C-51.66 45 -52.32 45 -53 45 C-49.21872604 36.67355835 -41.95962766 28.84870118 -35 23 C-34.34 23 -33.68 23 -33 23 C-33 22.34 -33 21.68 -33 21 C-30.97703502 19.19843899 -28.9526745 17.52780526 -26.8125 15.875 C-26.18553223 15.38652588 -25.55856445 14.89805176 -24.91259766 14.39477539 C-6.12615596 0 -6.12615596 0 0 0 Z " fill="#269AD7" transform="translate(215,155)"/>
<path d="M0 0 C1 3 1 3 0.25 4.98828125 C-0.1625 5.75527344 -0.575 6.52226562 -1 7.3125 C-1.45761719 8.1890625 -1.91523438 9.065625 -2.38671875 9.96875 C-3.18529297 11.46921875 -3.18529297 11.46921875 -4 13 C-5.28597678 15.42989405 -6.55285157 17.8688722 -7.8125 20.3125 C-8.41707031 21.46363281 -9.02164063 22.61476562 -9.64453125 23.80078125 C-10.97731129 26.94644941 -11.15360575 28.66618634 -11 32 C-12.5 35.3125 -12.5 35.3125 -14 38 C-14.66 38 -15.32 38 -16 38 C-16.55248958 41.78849998 -17.06740428 45.57090433 -17.5 49.375 C-18 53 -18 53 -19 54 C-19.04092937 56.33297433 -19.04241723 58.66705225 -19 61 C-19.99 61 -20.98 61 -22 61 C-21.53771988 54.129373 -20.37308851 47.87667635 -18.3125 41.3125 C-18.0441333 40.4452832 -17.7757666 39.57806641 -17.49926758 38.68457031 C-13.13485883 24.83991561 -7.37590979 12.473483 0 0 Z " fill="#2D8CD2" transform="translate(156,207)"/>
<path d="M0 0 C7.39891492 0.80715435 14.44610246 2.01553472 21.4375 4.625 C25.66010905 6.10922111 29.39016302 6.21951605 33.8359375 6.0078125 C36 6 36 6 39 7 C40.47848542 7.0448876 41.95884357 7.03884812 43.4375 7 C49.33139328 6.93035281 55.13737681 7.4358988 61 8 C61 8.33 61 8.66 61 9 C40.88220528 11.77795829 20.95600994 9.32611098 2 2 C1.34 1.34 0.68 0.68 0 0 Z " fill="#A7C7DF" transform="translate(237,398)"/>
<path d="M0 0 C3.25058918 2.77889485 5.10356749 6.39824841 7.1875 10.0625 C10.42908563 15.70390569 13.77213599 21.2665892 17.25 26.765625 C17.98947896 27.94123697 18.72881785 29.11693705 19.46801758 30.29272461 C20.57406283 32.05141716 21.68394678 33.80697139 22.80722046 35.55471802 C23.86563868 37.20258807 24.90776296 38.86088883 25.94921875 40.51953125 C26.56112061 41.47964111 27.17302246 42.43975098 27.8034668 43.42895508 C29 46 29 46 28.69067383 48.3425293 C28.46275146 48.88949463 28.2348291 49.43645996 28 50 C27.05598958 48.2421875 26.11197917 46.484375 25.16796875 44.7265625 C23.95236507 42.69497635 23.95236507 42.69497635 21 41 C20.31520552 39.4249727 19.63888635 37.8457615 19.00390625 36.25 C16.03688837 29.6001856 11.98740933 23.36827871 7.875 17.375 C0 5.77419355 0 5.77419355 0 0 Z " fill="#C4E3F9" transform="translate(160,386)"/>
<path d="M0 0 C1.01352152 2.70272404 0.94922221 4.3659503 0.546875 7.265625 C-0.29182486 13.56979281 -0.27704268 19.89915508 -0.3125 26.25 C-0.31678009 26.90908356 -0.32106018 27.56816711 -0.32546997 28.2472229 C-0.36058157 38.63695071 0.71180824 48.30816387 3.22265625 58.38671875 C4 62 4 62 3 65 C-0.4382884 56.09170733 -2.32964925 48.62720074 -2.625 39.0625 C-2.66077148 38.02722168 -2.69654297 36.99194336 -2.73339844 35.92529297 C-2.8380413 32.6170836 -2.92234542 29.30894792 -3 26 C-3.02868164 24.86836426 -3.05736328 23.73672852 -3.08691406 22.57080078 C-3.16190625 19.25548144 -3.21124082 15.94092368 -3.25 12.625 C-3.27143066 11.59125244 -3.29286133 10.55750488 -3.31494141 9.49243164 C-3.31929199 8.53844482 -3.32364258 7.58445801 -3.328125 6.6015625 C-3.3374707 5.75932129 -3.34681641 4.91708008 -3.35644531 4.04931641 C-3.23881836 3.37304199 -3.12119141 2.69676758 -3 2 C-2.01 1.34 -1.02 0.68 0 0 Z " fill="#276EAC" transform="translate(164,262)"/>
<path d="M0 0 C2.55110369 2.55110369 2.25697119 3.4930792 2.265625 7.03125 C2.26949219 8.06193604 2.27335937 9.09262207 2.27734375 10.15454102 C2.26832031 11.25854248 2.25929688 12.36254395 2.25 13.5 C2.24613281 14.61882568 2.24226563 15.73765137 2.23828125 16.89038086 C2.14087834 26.36078451 1.34007718 35.63142472 0 45 C-0.66 45 -1.32 45 -2 45 C-1.938125 45.825 -1.87625 46.65 -1.8125 47.5 C-2.04724662 51.88193696 -3.32618654 54.95495082 -5 59 C-5.66 59 -6.32 59 -7 59 C-5.7793091 53.27214268 -4.37711814 47.67346369 -2.68359375 42.06640625 C-0.62876808 32.84904539 -0.7218694 23.27317567 -0.4375 13.875 C-0.39418869 12.52342758 -0.35057098 11.17186494 -0.30664062 9.8203125 C-0.20142566 6.54695806 -0.09928521 3.27353875 0 0 Z " fill="#2C93CB" transform="translate(402,273)"/>
<path d="M0 0 C0.99 0.33 1.98 0.66 3 1 C-3.44882473 4.98928224 -9.72767289 7.44563257 -17.0625 9.3125 C-18.06095947 9.5717627 -19.05941895 9.83102539 -20.08813477 10.09814453 C-28.54045508 12.15717341 -36.3328557 12.67928272 -45 12 C-45 11.67 -45 11.34 -45 11 C-44.02160156 10.89042969 -43.04320312 10.78085937 -42.03515625 10.66796875 C-35.40534077 9.88176776 -29.06949748 9.01043656 -22.78125 6.65234375 C-21 6 -21 6 -18.375 5.5 C-15.7672962 5.03747664 -15.7672962 5.03747664 -12.625 3.5 C-8.998872 1.99953324 -5.87595412 1.4559946 -2 1 C-1.34 0.67 -0.68 0.34 0 0 Z " fill="#BED8E6" transform="translate(333,394)"/>
<path d="M0 0 C0.99 0 1.98 0 3 0 C3.45375 1.134375 3.9075 2.26875 4.375 3.4375 C5.57095806 7.04721692 5.57095806 7.04721692 8 8 C11.06466711 14.03356338 12.72104338 20.39205745 14 27 C14.66 27 15.32 27 16 27 C16.93854006 34.03905044 17.10808032 40.90272572 17 48 C16.67 48 16.34 48 16 48 C15.79697266 46.61554688 15.79697266 46.61554688 15.58984375 45.203125 C13.047396 29.30713761 7.81657651 14.087017 0 0 Z " fill="#1F99D5" transform="translate(385,224)"/>
<path d="M0 0 C0 3.86624965 -1.34497154 5.46660609 -3.4375 8.6875 C-4.07558594 9.68136719 -4.71367187 10.67523438 -5.37109375 11.69921875 C-5.90863281 12.45847656 -6.44617188 13.21773438 -7 14 C-7.33 14 -7.66 14 -8 14 C-8 12.35 -8 10.7 -8 9 C-9.0828125 9.928125 -9.0828125 9.928125 -10.1875 10.875 C-14.73104023 14.30789706 -19.54696967 15.50308971 -25 17 C-21.87936525 13.60535829 -18.54963394 11.28101102 -14.625 8.875 C-13.52414062 8.19179688 -12.42328125 7.50859375 -11.2890625 6.8046875 C-8.2231284 5.12242912 -5.34724245 3.98091395 -2 3 C-2 2.34 -2 1.68 -2 1 C-1.34 0.67 -0.68 0.34 0 0 Z " fill="#073F6E" transform="translate(345,479)"/>
<path d="M0 0 C1.2739902 0.76560456 2.54406512 1.53772626 3.8125 2.3125 C4.52019531 2.74175781 5.22789062 3.17101562 5.95703125 3.61328125 C7.8944879 4.92838088 9.36997331 6.33292725 11 8 C13.09989652 9.17574711 13.09989652 9.17574711 15 10 C15 10.66 15 11.32 15 12 C16.32 12 17.64 12 19 12 C19 12.66 19 13.32 19 14 C19.5671875 14.12246094 20.134375 14.24492187 20.71875 14.37109375 C23.92664767 15.2554628 26.78968521 16.72072182 29.78125 18.16015625 C32.22809796 19.23600592 32.22809796 19.23600592 36 19 C36 19.66 36 20.32 36 21 C29.89708606 21.49332551 26.22419143 20.08351738 20.9375 17.125 C20.20668213 16.72804932 19.47586426 16.33109863 18.72290039 15.92211914 C11.40525265 11.8507711 4.66155318 7.05686842 -2 2 C-1.34 1.34 -0.68 0.68 0 0 Z " fill="#B9CEE1" transform="translate(205,377)"/>
<path d="M0 0 C3.20726458 1.60363229 3.77832504 5.00182176 5.0625 8.1875 C9.33574204 18.38372913 14.96626362 27.44202278 22 36 C21.67 36.66 21.34 37.32 21 38 C16.38636355 33.11336731 12.70993963 28.18398297 9.45703125 22.296875 C8.05186054 19.8954685 8.05186054 19.8954685 5.86328125 17.87109375 C3.61625615 15.61464716 3.49872456 14.07546815 3 11 C2.34 10.67 1.68 10.34 1 10 C0.5859375 7.71484375 0.5859375 7.71484375 0.375 4.9375 C0.30023438 4.01839844 0.22546875 3.09929687 0.1484375 2.15234375 C0.09945312 1.44207031 0.05046875 0.73179687 0 0 Z " fill="#1F65B0" transform="translate(168,328)"/>
<path d="M0 0 C4.36355272 2.54800311 8.41533814 5.41114412 12.5 8.37890625 C14.94532375 10.09240871 14.94532375 10.09240871 17.75 11.02734375 C18.86375 11.50880859 18.86375 11.50880859 20 12 C20.33 12.99 20.66 13.98 21 15 C22.65948148 16.01187895 24.32580562 17.0126546 26 18 C26 18.66 26 19.32 26 20 C22.11390189 18.24933204 18.72187742 15.81675994 15.25 13.375 C14.64800781 12.95476562 14.04601562 12.53453125 13.42578125 12.1015625 C11.94886957 11.07006863 10.47420806 10.03535421 9 9 C6.66924071 9.95865509 6.66924071 9.95865509 5 13 C1.68441485 8.61487125 0.45003347 5.62541841 0 0 Z " fill="#024F9F" transform="translate(217,473)"/>
<path d="M0 0 C0.33 0.66 0.66 1.32 1 2 C1.66 2 2.32 2 3 2 C3.13277344 2.63808594 3.26554687 3.27617187 3.40234375 3.93359375 C3.57894531 4.75988281 3.75554687 5.58617187 3.9375 6.4375 C4.11152344 7.26121094 4.28554688 8.08492187 4.46484375 8.93359375 C4.80752994 10.97661204 4.80752994 10.97661204 6 12 C6.07205511 13.68608966 6.08386068 15.37500659 6.0625 17.0625 C6.05347656 17.98160156 6.04445313 18.90070313 6.03515625 19.84765625 C6.02355469 20.55792969 6.01195312 21.26820313 6 22 C6.66 22 7.32 22 8 22 C8 32.56 8 43.12 8 54 C7.67 54 7.34 54 7 54 C6.98018066 53.40687012 6.96036133 52.81374023 6.93994141 52.20263672 C6.3831503 36.30794249 5.2050717 21.41913677 0.8046875 6.08203125 C0 3 0 3 0 0 Z " fill="#B2DEF7" transform="translate(426,242)"/>
<path d="M0 0 C2.19140625 1.1796875 2.19140625 1.1796875 4.5625 2.875 C7.68043466 5.10627143 7.68043466 5.10627143 11 7 C11 7.66 11 8.32 11 9 C11.71800781 9.2475 12.43601562 9.495 13.17578125 9.75 C22.45805634 13.85833752 30.0521219 22.78083816 37 30 C36.67 30.66 36.34 31.32 36 32 C35.34515625 31.31035156 34.6903125 30.62070313 34.015625 29.91015625 C24.8245764 20.4464918 14.71908739 12.90489033 3.54370117 5.91748047 C1.13551934 4.40888107 -0.98267354 3.01732646 -3 1 C-2.01 0.67 -1.02 0.34 0 0 Z " fill="#37A5DC" transform="translate(340,180)"/>
<path d="M0 0 C2.475 0.495 2.475 0.495 5 1 C2.56620013 2.95134751 0.12969831 4.89820317 -2.32421875 6.82421875 C-10.47549404 13.25092671 -18.64106693 19.733387 -25 28 C-25.33 26.68 -25.66 25.36 -26 24 C-23.70507812 22.19335938 -23.70507812 22.19335938 -21.41015625 20.38671875 C-19.72844923 18.94316909 -19.72844923 18.94316909 -19 16 C-18.01 15.67 -17.02 15.34 -16 15 C-15.67 14.34 -15.34 13.68 -15 13 C-14.34 13 -13.68 13 -13 13 C-13 12.34 -13 11.68 -13 11 C-11.02053408 9.63636792 -9.0180755 8.30581356 -7 7 C-6.4225 6.4225 -5.845 5.845 -5.25 5.25 C-4.8375 4.8375 -4.425 4.425 -4 4 C-3.34 4 -2.68 4 -2 4 C-1.34 2.68 -0.68 1.36 0 0 Z " fill="#259FD6" transform="translate(215,184)"/>
<path d="M0 0 C2.700302 2.33597554 2.97560655 2.76826225 3.375 6.5625 C3.25125 7.696875 3.1275 8.83125 3 10 C2.01 10.66 1.02 11.32 0 12 C-0.33 12.99 -0.66 13.98 -1 15 C-1.66 15 -2.32 15 -3 15 C-3.268125 15.928125 -3.53625 16.85625 -3.8125 17.8125 C-4.94480421 20.85184289 -5.69900511 21.90073617 -8 24 C-5.96136383 15.72943539 -3.17712327 7.89885589 0 0 Z " fill="#E4EAED" transform="translate(174,235)"/>
<path d="M0 0 C0.66 0.33 1.32 0.66 2 1 C1.5875 1.62003906 1.175 2.24007812 0.75 2.87890625 C-7.17746502 15.03553229 -13.56716335 27.16869719 -18 41 C-19.47981369 37.12023206 -18.48289466 34.42646335 -17.25 30.5625 C-16.90453125 29.45003906 -16.5590625 28.33757812 -16.203125 27.19140625 C-15.06418131 24.17024718 -13.86863082 21.6308355 -12 19 C-11.34 19 -10.68 19 -10 19 C-9.90589844 18.30261719 -9.81179687 17.60523438 -9.71484375 16.88671875 C-8.85791011 13.42620533 -7.38914933 10.86957423 -5.5625 7.8125 C-4.94503906 6.76707031 -4.32757813 5.72164062 -3.69140625 4.64453125 C-2 2 -2 2 0 0 Z " fill="#B7E2F6" transform="translate(159,200)"/>
<path d="M0 0 C0.33 0 0.66 0 1 0 C1 22.77 1 45.54 1 69 C0.01 68.01 -0.98 67.02 -2 66 C-1.505 65.505 -1.505 65.505 -1 65 C-0.87624831 62.97585009 -0.82202689 60.94742263 -0.79467773 58.91967773 C-0.77473251 57.61840439 -0.75478729 56.31713104 -0.73423767 54.97642517 C-0.71725201 53.5454826 -0.70037325 52.11453875 -0.68359375 50.68359375 C-0.66303094 49.2277008 -0.64203466 47.77181391 -0.62062073 46.31593323 C-0.56533039 42.47727353 -0.51595198 38.63855935 -0.46777344 34.79980469 C-0.41760909 30.88536712 -0.36189664 26.97100904 -0.30664062 23.05664062 C-0.19897397 15.37116099 -0.09754807 7.68561543 0 0 Z " fill="#D1E4F7" transform="translate(353,255)"/>
<path d="M0 0 C0.89029907 0.31457153 0.89029907 0.31457153 1.79858398 0.63549805 C-0.46733308 2.5657237 -1.85139274 3.57716083 -4.82641602 4.07299805 C-6.00204102 4.35143555 -6.00204102 4.35143555 -7.20141602 4.63549805 C-8.29307877 6.56880407 -8.29307877 6.56880407 -9.20141602 8.63549805 C-10.95141602 9.69799805 -10.95141602 9.69799805 -13.20141602 10.63549805 C-18.1852881 12.97148044 -18.1852881 12.97148044 -22.20141602 16.63549805 C-23.19141602 16.30549805 -24.18141602 15.97549805 -25.20141602 15.63549805 C-25.20141602 14.64549805 -25.20141602 13.65549805 -25.20141602 12.63549805 C-24.12762695 12.11600586 -23.05383789 11.59651367 -21.94750977 11.0612793 C-20.51115036 10.35718155 -19.07496152 9.65273579 -17.63891602 8.94799805 C-16.93444336 8.60833008 -16.2299707 8.26866211 -15.50415039 7.91870117 C-11.87521532 6.12931844 -8.63160728 4.27956392 -5.42407227 1.8034668 C-2.20141602 -0.36450195 -2.20141602 -0.36450195 0 0 Z " fill="#1074C0" transform="translate(357.201416015625,383.364501953125)"/>
<path d="M0 0 C3.00700469 4.51050703 5.2832476 9.38054144 7.70507812 14.22485352 C8.62456243 16.06162591 9.55040262 17.89510209 10.4765625 19.72851562 C11.0540625 20.88158203 11.6315625 22.03464844 12.2265625 23.22265625 C12.75846191 24.28234619 13.29036133 25.34203613 13.83837891 26.43383789 C15 29 15 29 15 31 C14.34 31 13.68 31 13 31 C11.9923048 29.2335343 10.99408286 27.46166177 10 25.6875 C9.443125 24.70136719 8.88625 23.71523438 8.3125 22.69921875 C7 20 7 20 7 17 C6.34 17 5.68 17 5 17 C3.74335022 14.09399739 3 12.20395416 3 9 C2.01 8.67 1.02 8.34 0 8 C0 5.36 0 2.72 0 0 Z " fill="#BCDEF7" transform="translate(145,354)"/>
<path d="M0 0 C0.99 0.66 1.98 1.32 3 2 C1.93446504 3.84373465 0.84696823 5.67479236 -0.25 7.5 C-0.85328125 8.5209375 -1.4565625 9.541875 -2.078125 10.59375 C-2.71234375 11.3878125 -3.3465625 12.181875 -4 13 C-5.32 13 -6.64 13 -8 13 C-8 13.66 -8 14.32 -8 15 C-14.93 18.465 -14.93 18.465 -22 22 C-22 21.01 -22 20.02 -22 19 C-19.03 18.01 -16.06 17.02 -13 16 C-13 15.34 -13 14.68 -13 14 C-11.68 14 -10.36 14 -9 14 C-8.67 13.01 -8.34 12.02 -8 11 C-7.34 11 -6.68 11 -6 11 C-5.71125 10.236875 -5.4225 9.47375 -5.125 8.6875 C-4 6 -4 6 -2 3 C-1.34 3 -0.68 3 0 3 C0 2.01 0 1.02 0 0 Z " fill="#1770BB" transform="translate(351,467)"/>
<path d="M0 0 C3.47909371 -0.05883728 6.95805674 -0.09387399 10.4375 -0.125 C11.41138672 -0.14175781 12.38527344 -0.15851563 13.38867188 -0.17578125 C21.45290349 -0.2297226 28.71447485 0.6259404 36.0625 4.125 C36.81660156 4.47820312 37.57070313 4.83140625 38.34765625 5.1953125 C38.89292969 5.46085938 39.43820312 5.72640625 40 6 C40 6.66 40 7.32 40 8 C39.44054687 7.81824219 38.88109375 7.63648438 38.3046875 7.44921875 C25.5902069 3.46316776 13.26089757 1.4994364 0 1 C0 0.67 0 0.34 0 0 Z " fill="#28A1D6" transform="translate(289,169)"/>
<path d="M0 0 C3.27534154 3.27534154 4.12064536 7.6655174 5.5625 12 C5.87896484 12.90878906 6.19542969 13.81757813 6.52148438 14.75390625 C8.56140126 20.84333968 9.65140139 26.58787194 10 33 C9.34 33 8.68 33 8 33 C7.95101563 32.38511719 7.90203125 31.77023437 7.8515625 31.13671875 C7.77679688 30.32847656 7.70203125 29.52023437 7.625 28.6875 C7.55539062 27.88699219 7.48578125 27.08648437 7.4140625 26.26171875 C7.10435574 23.72775559 7.10435574 23.72775559 5 21 C4.875 17.8125 4.875 17.8125 5 15 C4.34 15 3.68 15 3 15 C0.5978396 10.1956792 0.38877771 5.26896105 0 0 Z " fill="#B0F3FC" transform="translate(391,236)"/>
<path d="M0 0 C0.33 0 0.66 0 1 0 C1.22506333 1.85221038 1.42920151 3.7069678 1.625 5.5625 C1.74101562 6.59503906 1.85703125 7.62757813 1.9765625 8.69140625 C1.99857876 11.79936875 1.43439437 13.96311184 0.49853516 16.88696289 C-0.61960705 21.62619931 -0.4869034 26.58973408 -0.625 31.4375 C-0.66367188 32.55060547 -0.70234375 33.66371094 -0.7421875 34.81054688 C-0.83590966 37.54020476 -0.92162294 40.26986563 -1 43 C-1.33 43 -1.66 43 -2 43 C-2.05026066 38.96561564 -2.0861162 34.93135797 -2.10986328 30.89672852 C-2.11978563 29.5304852 -2.13332786 28.16426231 -2.15087891 26.7980957 C-2.26519046 17.65653373 -1.70157293 8.98841031 0 0 Z " fill="#B6D2EB" transform="translate(165,261)"/>
<path d="M0 0 C1 3 1 3 0.25 4.98828125 C-0.1625 5.75527344 -0.575 6.52226562 -1 7.3125 C-1.68642578 8.61767578 -1.68642578 8.61767578 -2.38671875 9.94921875 C-2.91910156 10.95597656 -3.45148438 11.96273437 -4 13 C-5.28299883 15.53562682 -6.54746327 18.08037474 -7.8125 20.625 C-8.42286373 21.84651079 -9.03351549 23.06787773 -9.64453125 24.2890625 C-10.09183594 25.18367188 -10.53914062 26.07828125 -11 27 C-11.66 27 -12.32 27 -13 27 C-11.08727931 20.59777762 -8.5767736 14.8561472 -5.375 9 C-4.76398438 7.85724609 -4.76398438 7.85724609 -4.140625 6.69140625 C-1.16635497 1.16635497 -1.16635497 1.16635497 0 0 Z " fill="#3296D7" transform="translate(156,207)"/>
<path d="M0 0 C8.33427701 3.69979587 17.54112058 11.69542496 23 19 C23 20.32 23 21.64 23 23 C22.34 23 21.68 23 21 23 C20.4225 21.906875 19.845 20.81375 19.25 19.6875 C17.54327349 16.6641559 15.89469132 14.96425482 13 13 C13 12.34 13 11.68 13 11 C12.4225 10.71125 11.845 10.4225 11.25 10.125 C10.5075 9.75375 9.765 9.3825 9 9 C8.360625 8.731875 7.72125 8.46375 7.0625 8.1875 C4.20712332 6.54349524 2.19453779 4.43837533 0 2 C0 1.34 0 0.68 0 0 Z " fill="#36A7E3" transform="translate(368,165)"/>
<path d="M0 0 C0.33 0 0.66 0 1 0 C1.2360234 5.25995013 0.52979324 9.28305955 -1.1875 14.25 C-1.40946045 14.89461182 -1.6314209 15.53922363 -1.86010742 16.20336914 C-3.8882802 21.96280953 -6.3197243 27.51398888 -9 33 C-9.33 33 -9.66 33 -10 33 C-10.46192125 28.07284004 -8.8275283 24.49267375 -7 20 C-6.34 20 -5.68 20 -5 20 C-4.8453125 18.5459375 -4.8453125 18.5459375 -4.6875 17.0625 C-4.15091142 13.23639015 -3.00911108 9.7456477 -1.71875 6.11328125 C-1.03111225 4.09147678 -0.48784005 2.07801097 0 0 Z " fill="#2E94D2" transform="translate(426,328)"/>
<path d="M0 0 C5.71659396 3.1906571 11.2671322 6.6268618 16.81640625 10.09765625 C19.81758751 11.89100015 22.85274185 13.48079719 26 15 C25.34 15.66 24.68 16.32 24 17 C19.545 15.02 19.545 15.02 15 13 C15 12.34 15 11.68 15 11 C14.01 11 13.02 11 12 11 C12 10.34 12 9.68 12 9 C10.35 8.67 8.7 8.34 7 8 C6.67 7.01 6.34 6.02 6 5 C4.35448038 4.28272222 2.68577711 3.61674772 1 3 C0.34 2.34 -0.32 1.68 -1 1 C-0.67 0.67 -0.34 0.34 0 0 Z " fill="#1A5EAB" transform="translate(204,380)"/>
<path d="M0 0 C0.66 0 1.32 0 2 0 C0.63396375 4.66846408 -1.29808568 8.44429919 -3.875 12.5625 C-4.55304688 13.65691406 -5.23109375 14.75132812 -5.9296875 15.87890625 C-7.81922403 18.7274717 -9.81743071 21.37210828 -12 24 C-12.66 23.67 -13.32 23.34 -14 23 C-12.38731308 20.28775382 -10.75098126 17.62647188 -9 15 C-8.34 15 -7.68 15 -7 15 C-6.566875 13.6696875 -6.566875 13.6696875 -6.125 12.3125 C-5.16851252 9.49617576 -4.13201054 6.74916844 -3 4 C-2.34 4 -1.68 4 -1 4 C-0.67 2.68 -0.34 1.36 0 0 Z " fill="#DBF8FD" transform="translate(391,336)"/>
<path d="M0 0 C4.75 1.875 4.75 1.875 7 3 C7 3.66 7 4.32 7 5 C7.99 5 8.98 5 10 5 C11 6 12 7 13 8 C14.65816784 8.68753301 16.32459336 9.35561283 18 10 C18.66 10.66 19.32 11.32 20 12 C21.52056618 12.59834554 23.06612088 13.13506656 24.625 13.625 C25.44226563 13.88539063 26.25953125 14.14578125 27.1015625 14.4140625 C27.72804688 14.60742188 28.35453125 14.80078125 29 15 C29 15.66 29 16.32 29 17 C17.74059574 15.87405957 7.5988584 7.95394524 0 0 Z " fill="#0D59A5" transform="translate(244,494)"/>
<path d="M0 0 C2.91517292 1.07401108 4.77810176 1.77810176 7 4 C6.34 4 5.68 4 5 4 C5.20625 4.556875 5.4125 5.11375 5.625 5.6875 C6.10695211 8.659538 5.26565028 10.31979941 4 13 C0.36827755 9.13397287 -0.69457852 6.29397231 -1 1 C-0.67 0.67 -0.34 0.34 0 0 Z " fill="#072B52" transform="translate(224,481)"/>
<path d="M0 0 C2.87525669 -0.05425013 5.74947646 -0.09379277 8.625 -0.125 C9.43324219 -0.14175781 10.24148438 -0.15851562 11.07421875 -0.17578125 C15.80093815 -0.21420986 19.55387702 0.17262906 24 2 C23.75 4.375 23.75 4.375 23 7 C21.1875 8.375 21.1875 8.375 19 9 C16.75 8.625 16.75 8.625 15 8 C16.65 7.67 18.3 7.34 20 7 C20.33 5.35 20.66 3.7 21 2 C14.07 1.67 7.14 1.34 0 1 C0 0.67 0 0.34 0 0 Z " fill="#94AEBD" transform="translate(341,560)"/>
<path d="M0 0 C-2.36933577 1.63381678 -4.74486772 3.25704491 -7.125 4.875 C-7.79015625 5.33519531 -8.4553125 5.79539062 -9.140625 6.26953125 C-12.99188327 8.8747942 -16.45711093 10.76874969 -21 12 C-20.25675659 9.60510457 -19.52942646 8.29222384 -17.30859375 7.06640625 C-15.55926499 6.32780077 -13.78065851 5.65950315 -12 5 C-12 4.34 -12 3.68 -12 3 C-10.5682384 2.30062798 -9.12932968 1.61587282 -7.6875 0.9375 C-6.88699219 0.55464844 -6.08648437 0.17179687 -5.26171875 -0.22265625 C-3 -1 -3 -1 0 0 Z " fill="#B4DDF5" transform="translate(358,382)"/>
<path d="M0 0 C1.16844038 3.50532115 0.77678667 4.42975165 -0.36328125 7.8515625 C-0.67330078 8.78484375 -0.98332031 9.718125 -1.30273438 10.6796875 C-1.63595703 11.65164062 -1.96917969 12.62359375 -2.3125 13.625 C-2.63412109 14.6046875 -2.95574219 15.584375 -3.28710938 16.59375 C-5.7412992 23.8706496 -5.7412992 23.8706496 -8 25 C-8.21496511 20.48573274 -7.55208353 17.22511629 -6 13 C-5.71125 11.845 -5.4225 10.69 -5.125 9.5 C-3.89050343 5.65934402 -2.36305345 3.22950639 0 0 Z " fill="#2E7DBB" transform="translate(172,237)"/>
<path d="M0 0 C0.66 0.33 1.32 0.66 2 1 C0.57939484 5.52010733 -1.64542871 7.71997473 -5 11 C-6.85754807 13.37397846 -8.66290379 15.77906879 -10.44921875 18.20703125 C-10.96097656 18.79871094 -11.47273438 19.39039063 -12 20 C-12.66 20 -13.32 20 -14 20 C-12.64783162 17.11612221 -11.10247664 14.64582025 -9.1796875 12.109375 C-8.64472656 11.40039062 -8.10976563 10.69140625 -7.55859375 9.9609375 C-7.00300781 9.23132813 -6.44742187 8.50171875 -5.875 7.75 C-5.31167969 7.00492188 -4.74835938 6.25984375 -4.16796875 5.4921875 C-2.78151746 3.65925189 -1.39212232 1.82862987 0 0 Z " fill="#DBECF3" transform="translate(321,516)"/>
<path d="M0 0 C0.33 0 0.66 0 1 0 C1 5.28 1 10.56 1 16 C0.34 16 -0.32 16 -1 16 C-0.938125 16.825 -0.87625 17.65 -0.8125 18.5 C-1.04724662 22.88193696 -2.32618654 25.95495082 -4 30 C-4.66 30 -5.32 30 -6 30 C-4.96171795 25.12806116 -3.82763436 20.34619766 -2.4375 15.5625 C-0.99244101 10.39531936 -0.33628148 5.34571594 0 0 Z " fill="#3798D7" transform="translate(401,302)"/>
<path d="M0 0 C8.92357503 3.62801914 18.38888027 7.83926225 25 15 C20.16989127 14.56089921 18.22579877 13.57142007 15 10 C14.34 10 13.68 10 13 10 C12.54625 9.525625 12.0925 9.05125 11.625 8.5625 C9.77022513 6.77906263 8.49864408 6.4308007 6 6 C6 5.34 6 4.68 6 4 C4.02 3.34 2.04 2.68 0 2 C0 1.34 0 0.68 0 0 Z " fill="#2EA8E1" transform="translate(343,150)"/>
<path d="M0 0 C-2.46766251 2.46766251 -4.42029361 2.87277494 -7.75 3.875 C-12.47066116 5.38424984 -16.10063822 6.96716306 -20 10 C-21.32 9.34 -22.64 8.68 -24 8 C-19.01396004 5.30753842 -13.94705227 3.12881314 -8.625 1.1875 C-7.42101562 0.74792969 -6.21703125 0.30835938 -4.9765625 -0.14453125 C-2 -1 -2 -1 0 0 Z " fill="#29A1DA" transform="translate(239,146)"/>
<path d="M0 0 C0 0.66 0 1.32 0 2 C0.62648438 1.98839844 1.25296875 1.97679687 1.8984375 1.96484375 C2.71570313 1.95582031 3.53296875 1.94679687 4.375 1.9375 C5.18710937 1.92589844 5.99921875 1.91429687 6.8359375 1.90234375 C9 2 9 2 11 3 C11 3.66 11 4.32 11 5 C9.8965625 4.85691406 8.793125 4.71382812 7.65625 4.56640625 C2.61263334 3.93595417 -2.44169566 3.43377259 -7.5 2.9375 C-8.4178125 2.84662109 -9.335625 2.75574219 -10.28125 2.66210938 C-12.52074478 2.4404927 -14.7603271 2.2198079 -17 2 C-17 1.67 -17 1.34 -17 1 C-11.29014022 0.25983299 -5.75813575 -0.10469338 0 0 Z " fill="#9CDAF2" transform="translate(308,137)"/>
<path d="M0 0 C-0.33 0.66 -0.66 1.32 -1 2 C-2.65 2 -4.3 2 -6 2 C-6.33 3.32 -6.66 4.64 -7 6 C-4.03 6.495 -4.03 6.495 -1 7 C-1 7.33 -1 7.66 -1 8 C-2.45922693 7.88590407 -3.91740598 7.75834456 -5.375 7.625 C-6.59316406 7.52058594 -6.59316406 7.52058594 -7.8359375 7.4140625 C-10 7 -10 7 -12 5 C-12 4.01 -12 3.02 -12 2 C-7.8794254 0.00214565 -4.54805635 -0.17835515 0 0 Z " fill="#7694A6" transform="translate(214,561)"/>
<path d="M0 0 C-2.2424807 2.62208558 -3.63236229 3.40736171 -7.0625 3.6875 C-7.84625 3.75195312 -8.63 3.81640625 -9.4375 3.8828125 C-13.62720666 4.07441494 -17.80733461 4.07877659 -22 4 C-21.67 3.34 -21.34 2.68 -21 2 C-18.0859375 1.3671875 -18.0859375 1.3671875 -14.375 0.875 C-12.56128906 0.62363281 -12.56128906 0.62363281 -10.7109375 0.3671875 C-7.11182801 0.01106509 -3.61382733 -0.06503031 0 0 Z " fill="#0E62A9" transform="translate(311,405)"/>
<path d="M0 0 C0.66 0 1.32 0 2 0 C2 1.32 2 2.64 2 4 C2.66 4 3.32 4 4 4 C4.99 7.96 5.98 11.92 7 16 C6.34 16 5.68 16 5 16 C4.67 16.66 4.34 17.32 4 18 C3.3304744 15.37569876 2.66426282 12.75063343 2 10.125 C1.80921875 9.37863281 1.6184375 8.63226563 1.421875 7.86328125 C0 2.2265625 0 2.2265625 0 0 Z " fill="#C4DBEC" transform="translate(164,308)"/>
<path d="M0 0 C0.99 0 1.98 0 3 0 C3.45375 1.134375 3.9075 2.26875 4.375 3.4375 C5.57095806 7.04721692 5.57095806 7.04721692 8 8 C10.23709068 12.87439483 11.41386916 17.61970091 11 23 C9.08216895 20.12325342 7.91026693 17.50929449 6.625 14.3125 C4.61861018 9.41262219 2.43915242 4.69762687 0 0 Z " fill="#269EDC" transform="translate(385,224)"/>
<path d="M0 0 C4.08918232 2.16032274 6.13335511 3.82853067 8 8 C7.5153125 7.72285156 7.030625 7.44570312 6.53125 7.16015625 C2.85225653 5.17208478 -0.24413533 3.77689571 -4.4375 3.375 C-5.613125 3.25125 -6.78875 3.1275 -8 3 C-8.33 2.34 -8.66 1.68 -9 1 C-5.89046621 -0.5547669 -3.43733239 -0.28644437 0 0 Z " fill="#112128" transform="translate(358,220)"/>
<path d="M0 0 C4.91935902 4.11619836 9.52647956 8.40410362 14 13 C13.01 13.33 12.02 13.66 11 14 C10.4225 13.38125 9.845 12.7625 9.25 12.125 C7.18573008 9.9308346 7.18573008 9.9308346 4.8125 9.0625 C3 8 3 8 2.25 5.375 C2.1675 4.59125 2.085 3.8075 2 3 C1.01 2.67 0.02 2.34 -1 2 C-0.67 1.34 -0.34 0.68 0 0 Z " fill="#2766B0" transform="translate(190,366)"/>
<path d="M0 0 C0 3 0 3 -1.57421875 4.8671875 C-2.27160156 5.52976563 -2.96898437 6.19234375 -3.6875 6.875 C-4.41582031 7.57625 -5.14414062 8.2775 -5.89453125 9 C-6.58933594 9.66 -7.28414063 10.32 -8 11 C-8.96190694 11.95474635 -9.92097372 12.91237889 -10.875 13.875 C-12.25 15.25 -13.625 16.625 -15 18 C-15.99 17.67 -16.98 17.34 -18 17 C-17.20335937 16.27554687 -16.40671875 15.55109375 -15.5859375 14.8046875 C-10.28310293 9.97048718 -5.00586872 5.14492063 0 0 Z " fill="#DBEDEF" transform="translate(353,249)"/>
<path d="M0 0 C0 5.90849903 -5.90078557 11.01418582 -9.9375 15.0625 C-10.9584375 16.0215625 -10.9584375 16.0215625 -12 17 C-12.66 16.67 -13.32 16.34 -14 16 C-9.59802297 10.34669955 -5.19861358 4.9386829 0 0 Z " fill="#D1F8FD" transform="translate(199,201)"/>
<path d="M0 0 C-4.85312647 2.61322194 -9.76868486 4.34590798 -15 6 C-15.99 6.33 -16.98 6.66 -18 7 C-18.66 6.34 -19.32 5.68 -20 5 C-18.12855305 4.17934931 -16.25265664 3.3688416 -14.375 2.5625 C-13.33085937 2.11003906 -12.28671875 1.65757812 -11.2109375 1.19140625 C-3.40782123 -1.70391061 -3.40782123 -1.70391061 0 0 Z " fill="#CFF9FE" transform="translate(247,176)"/>
<path d="M0 0 C8.60791872 0.30524534 15.95691869 1.93393177 24 5 C20.60621166 6.02178574 18.67226981 5.76540875 15.28125 4.6796875 C10.2615624 3.18409565 5.10755249 2.15207951 0 1 C0 0.67 0 0.34 0 0 Z " fill="#B9F5FC" transform="translate(300,170)"/>
<path d="M0 0 C-3.5749232 5.64461558 -8.81951597 6.30339654 -15 8 C-10.75818282 3.43188919 -6.58685167 -0.77492373 0 0 Z " fill="#003463" transform="translate(335,488)"/>
<path d="M0 0 C2.57128618 1.98690295 3.03695162 3.14252768 3.875 6.375 C5.14921062 10.48078976 6.7950536 12.21675707 10 15 C9.67 15.99 9.34 16.98 9 18 C8.34 17.01 7.68 16.02 7 15 C6.01 14.67 5.02 14.34 4 14 C1.06722111 9.37523328 0.45990509 5.33489907 0 0 Z " fill="#C5D0DB" transform="translate(180,344)"/>
<path d="M0 0 C2.87387155 2.54227098 5.10764428 5.38030904 7.3125 8.5 C7.84488281 9.2528125 8.37726563 10.005625 8.92578125 10.78125 C10 13 10 13 9.66796875 15.28125 C9.44753906 15.8484375 9.22710937 16.415625 9 17 C8.731875 16.195625 8.46375 15.39125 8.1875 14.5625 C7.795625 13.716875 7.40375 12.87125 7 12 C6.01 11.67 5.02 11.34 4 11 C2.2470538 7.42668659 0.78230674 3.91153372 0 0 Z " fill="#D6EEFC" transform="translate(202,456)"/>
<path d="M0 0 C0.66 0.33 1.32 0.66 2 1 C2 6.28 2 11.56 2 17 C1.34 17.33 0.68 17.66 0 18 C-0.19384179 15.18780295 -0.38036603 12.37545804 -0.5625 9.5625 C-0.61857422 8.76005859 -0.67464844 7.95761719 -0.73242188 7.13085938 C-0.8616295 5.08937889 -0.9351273 3.04453631 -1 1 C-0.67 0.67 -0.34 0.34 0 0 Z " fill="#132B33" transform="translate(367,229)"/>
<path d="M0 0 C5.30854091 3.53902727 8.73925732 8.606149 12 14 C12 14.66 12 15.32 12 16 C11.01 15.67 10.02 15.34 9 15 C7.8125 11.9375 7.8125 11.9375 7 9 C6.34 9 5.68 9 5 9 C5 8.34 5 7.68 5 7 C4.01 7 3.02 7 2 7 C1.34 4.69 0.68 2.38 0 0 Z " fill="#BCF2FD" transform="translate(372,208)"/>
<path d="M0 0 C1.66666667 0.66666667 3.33333333 1.33333333 5 2 C5.9075 2.309375 6.815 2.61875 7.75 2.9375 C8.4925 3.288125 9.235 3.63875 10 4 C10.33 4.99 10.66 5.98 11 7 C12.65948148 8.01187895 14.32580562 9.0126546 16 10 C16 10.66 16 11.32 16 12 C12.46433646 10.38753587 9.45224677 8.28040353 6.3125 6 C5.33925781 5.29875 4.36601562 4.5975 3.36328125 3.875 C1 2 1 2 0 0 Z " fill="#1061AB" transform="translate(227,481)"/>
<path d="M0 0 C-4.28623258 3.04184248 -8.80866879 4.44279093 -14 5 C-16.27734375 4.546875 -16.27734375 4.546875 -18 4 C-4.09756098 -1.36585366 -4.09756098 -1.36585366 0 0 Z " fill="#0E6CB8" transform="translate(330,400)"/>
<path d="M0 0 C0.66 0.33 1.32 0.66 2 1 C-0.36957131 6.01791571 -3.1244128 7.69517696 -8 10 C-8.66 9.67 -9.32 9.34 -10 9 C-8.71142987 7.68445979 -7.41904109 6.37265903 -6.125 5.0625 C-5.04605469 3.96615234 -5.04605469 3.96615234 -3.9453125 2.84765625 C-2 1 -2 1 0 0 Z " fill="#1E82C6" transform="translate(370,370)"/>
<path d="M0 0 C0.33 0 0.66 0 1 0 C0.55643705 6.20988129 -0.91532502 10.60540561 -4 16 C-4.99 15.34 -5.98 14.68 -7 14 C-4.69 9.38 -2.38 4.76 0 0 Z " fill="#218BD2" transform="translate(393,335)"/>
<path d="M0 0 C0.66 0 1.32 0 2 0 C0.47677573 3.62593603 -1.69353539 5.90054247 -4.5 8.625 C-5.2940625 9.40101563 -6.088125 10.17703125 -6.90625 10.9765625 C-7.5971875 11.64429688 -8.288125 12.31203125 -9 13 C-9.66 13.66 -10.32 14.32 -11 15 C-11 13.68 -11 12.36 -11 11 C-9.03814584 9.28859531 -7.03697617 7.62126675 -5 6 C-4.67 5.01 -4.34 4.02 -4 3 C-3.01 2.67 -2.02 2.34 -1 2 C-0.67 1.34 -0.34 0.68 0 0 Z " fill="#2694CC" transform="translate(200,197)"/>
<path d="M0 0 C1.32 0.33 2.64 0.66 4 1 C2.89718873 2.27200971 1.79269231 3.54255853 0.6875 4.8125 C-0.23482422 5.87404297 -0.23482422 5.87404297 -1.17578125 6.95703125 C-2.73334335 8.70136739 -4.32658875 10.36778041 -6 12 C-5.67 10.02 -5.34 8.04 -5 6 C-4.34 6 -3.68 6 -3 6 C-3 5.34 -3 4.68 -3 4 C-2.34 4 -1.68 4 -1 4 C-0.67 2.68 -0.34 1.36 0 0 Z " fill="#B8E0F3" transform="translate(170,184)"/>
<path d="M0 0 C-9.22551253 6.70387244 -9.22551253 6.70387244 -15 7 C-15 6.34 -15 5.68 -15 5 C-14.43410156 4.89042969 -13.86820312 4.78085937 -13.28515625 4.66796875 C-12.18494141 4.43013672 -12.18494141 4.43013672 -11.0625 4.1875 C-10.33160156 4.03667969 -9.60070312 3.88585937 -8.84765625 3.73046875 C-8.23792969 3.48941406 -7.62820313 3.24835938 -7 3 C-6.67 2.01 -6.34 1.02 -6 0 C-3.42525708 -0.99667468 -2.51072708 -1.25536354 0 0 Z " fill="#095EB3" transform="translate(314,500)"/>
<path d="M0 0 C1.25425781 0.11988281 2.50851562 0.23976562 3.80078125 0.36328125 C4.75339844 0.47027344 5.70601563 0.57726562 6.6875 0.6875 C6.6875 1.0175 6.6875 1.3475 6.6875 1.6875 C5.38425781 1.88666016 5.38425781 1.88666016 4.0546875 2.08984375 C2.90226562 2.26644531 1.74984375 2.44304687 0.5625 2.625 C-0.57445312 2.79902344 -1.71140625 2.97304687 -2.8828125 3.15234375 C-6.02982669 3.64339266 -9.17180783 4.15768719 -12.3125 4.6875 C-12.3125 4.0275 -12.3125 3.3675 -12.3125 2.6875 C-8.18432096 -0.63556573 -5.14450507 -0.52887435 0 0 Z " fill="#2E9BD9" transform="translate(262.3125,168.3125)"/>
<path d="M0 0 C1 3 1 3 -0.3125 5.6875 C-0.869375 6.450625 -1.42625 7.21375 -2 8 C-2.66 8 -3.32 8 -4 8 C-3.67 8.99 -3.34 9.98 -3 11 C-4.98 11.99 -4.98 11.99 -7 13 C-5.58832253 7.73829306 -3.25149768 4.27828642 0 0 Z " fill="#D3F1FA" transform="translate(184,218)"/>
<path d="M0 0 C5.68502535 1.64566523 10.76681636 4.29032784 16 7 C16 7.33 16 7.66 16 8 C13.69 7.67 11.38 7.34 9 7 C9 6.34 9 5.68 9 5 C7.68 5 6.36 5 5 5 C5 4.34 5 3.68 5 3 C3.35 2.67 1.7 2.34 0 2 C0 1.34 0 0.68 0 0 Z " fill="#C9F8FE" transform="translate(325,176)"/>
<path d="M0 0 C0.66 0.33 1.32 0.66 2 1 C0.54927753 3.00593724 -0.90991029 5.00460174 -2.375 7 C-2.7875 7.57234375 -3.2 8.1446875 -3.625 8.734375 C-4.70171719 10.19315312 -5.84666578 11.60100976 -7 13 C-7.66 13 -8.32 13 -9 13 C-8.67 11.68 -8.34 10.36 -8 9 C-7.34 9 -6.68 9 -6 9 C-6 8.01 -6 7.02 -6 6 C-4.625 4.3125 -4.625 4.3125 -3 3 C-2.34 3 -1.68 3 -1 3 C-0.67 2.01 -0.34 1.02 0 0 Z " fill="#3094CC" transform="translate(187,212)"/>
<path d="M0 0 C-9.22551253 5.55580866 -9.22551253 5.55580866 -15 6 C-15 5.34 -15 4.68 -15 4 C-13.06767179 3.13419713 -11.12892806 2.28270059 -9.1875 1.4375 C-8.10855469 0.96183594 -7.02960938 0.48617188 -5.91796875 -0.00390625 C-3 -1 -3 -1 0 0 Z " fill="#A9DDF7" transform="translate(336,395)"/>
<path d="M0 0 C1.65 0 3.3 0 5 0 C2.49941082 2.91024202 -0.19655377 4.16791164 -3.6875 5.6875 C-4.68136719 6.12449219 -5.67523438 6.56148438 -6.69921875 7.01171875 C-7.45847656 7.33785156 -8.21773438 7.66398437 -9 8 C-9 7.01 -9 6.02 -9 5 C-6.03 4.01 -3.06 3.02 0 2 C0 1.34 0 0.68 0 0 Z " fill="#085FAE" transform="translate(338,481)"/>
<path d="M0 0 C0.66 0 1.32 0 2 0 C3.2890625 1.609375 3.2890625 1.609375 4.625 3.75 C5.07101563 4.44609375 5.51703125 5.1421875 5.9765625 5.859375 C7 8 7 8 7 12 C6.01 11.67 5.02 11.34 4 11 C3.28293018 9.01751285 2.61709587 7.01584651 2 5 C1.34 4.34 0.68 3.68 0 3 C0 2.01 0 1.02 0 0 Z " fill="#D7EAF8" transform="translate(194,444)"/>
<path d="M0 0 C1.010625 0.763125 2.02125 1.52625 3.0625 2.3125 C6.55778575 4.82339915 9.9954434 6.44721275 14 8 C14 8.33 14 8.66 14 9 C8.91844856 9.61970139 6.40301118 8.33460402 2.41796875 5.484375 C0.72939055 3.71671738 0.39200845 2.3825968 0 0 Z " fill="#CED6DD" transform="translate(200,344)"/>
<path d="M0 0 C0.66 0.66 1.32 1.32 2 2 C-0.97 4.97 -3.94 7.94 -7 11 C-7.66 10.34 -8.32 9.68 -9 9 C-6 6 -3 3 0 0 Z " fill="#192D3F" transform="translate(225,310)"/>
<path d="M0 0 C0.33 0.66 0.66 1.32 1 2 C-1.88341534 6.21422242 -4.04303419 7.76075855 -9 9 C-8.06725891 7.87105124 -7.12859878 6.74699124 -6.1875 5.625 C-5.66542969 4.99851562 -5.14335937 4.37203125 -4.60546875 3.7265625 C-3 2 -3 2 0 0 Z " fill="#DEECEE" transform="translate(256,300)"/>
<path d="M0 0 C3.23150461 0.96071759 4.75851173 1.69411485 6.875 4.375 C8 7 8 7 7.6875 9.3125 C7.460625 9.869375 7.23375 10.42625 7 11 C6.05598958 9.2421875 5.11197917 7.484375 4.16796875 5.7265625 C2.95236507 3.69497635 2.95236507 3.69497635 0 2 C0 1.34 0 0.68 0 0 Z " fill="#D2E8F9" transform="translate(181,425)"/>
<path d="M0 0 C2 3 2 3 1.64453125 4.9375 C1.36996094 5.618125 1.09539062 6.29875 0.8125 7 C0.55082031 7.680625 0.28914062 8.36125 0.01953125 9.0625 C-1.06480267 11.12314991 -2.27875667 12.44845672 -4 14 C-3.52188823 12.22888156 -3.0424722 10.45811517 -2.5625 8.6875 C-2.29566406 7.70136719 -2.02882812 6.71523437 -1.75390625 5.69921875 C-1.21920575 3.78482474 -0.62855462 1.88566385 0 0 Z " fill="#C4E0F6" transform="translate(170,245)"/>
<path d="M0 0 C3.43772727 3.43772727 3.97127774 7.10960984 4.125 11.875 C4.08375 12.90625 4.0425 13.9375 4 15 C2.25674553 12.3851183 1.58412043 10.9946567 0.875 8.0625 C0.70742188 7.39347656 0.53984375 6.72445312 0.3671875 6.03515625 C0 4 0 4 0 0 Z " fill="#C2F7FD" transform="translate(391,236)"/>
<path d="M0 0 C1.46022163 0.95545366 2.91811468 1.91446678 4.375 2.875 C5.18710937 3.40867188 5.99921875 3.94234375 6.8359375 4.4921875 C9 6 9 6 11 8 C7.2397015 7.41892368 4.46964968 6.34800504 1.1875 4.4375 C0.39730469 3.98246094 -0.39289063 3.52742187 -1.20703125 3.05859375 C-1.79871094 2.70925781 -2.39039063 2.35992187 -3 2 C-2.01 1.34 -1.02 0.68 0 0 Z " fill="#34A0DD" transform="translate(340,180)"/>
<path d="M0 0 C-1.31061591 4.23429756 -2.94356259 8.07407404 -5 12 C-6.10914742 8.67255773 -6.03211839 6.35438475 -5 3 C-2.62068966 0 -2.62068966 0 0 0 Z " fill="#2C90CE" transform="translate(408,377)"/>
<path d="M0 0 C2.31 0.66 4.62 1.32 7 2 C6.34 3.98 5.68 5.96 5 8 C2.74754119 5.31158141 1.11786042 3.35358125 0 0 Z " fill="#134A84" transform="translate(218,478)"/>
<path d="M0 0 C0.66 0 1.32 0 2 0 C0.55049545 3.7910119 -1.15172566 7.3874638 -3 11 C-3.66 9.68 -4.32 8.36 -5 7 C-4.01 6.67 -3.02 6.34 -2 6 C-1.855625 5.195625 -1.71125 4.39125 -1.5625 3.5625 C-1 1 -1 1 0 0 Z " fill="#2B8DCC" transform="translate(394,400)"/>
<path d="M0 0 C0.66 0.33 1.32 0.66 2 1 C0.515 7.435 0.515 7.435 -1 14 C-1.33 14 -1.66 14 -2 14 C-2.05410687 12.22950311 -2.09284119 10.45853151 -2.125 8.6875 C-2.14820313 7.70136719 -2.17140625 6.71523438 -2.1953125 5.69921875 C-2 3 -2 3 0 0 Z " fill="#DCEAF4" transform="translate(168,256)"/>
<path d="M0 0 C2.97 0.33 5.94 0.66 9 1 C9 1.99 9 2.98 9 4 C10.32 4.33 11.64 4.66 13 5 C7.30702655 5.45543788 4.45738181 4.58764877 0 1 C0 0.67 0 0.34 0 0 Z " fill="#B9E3F4" transform="translate(335,145)"/>
<path d="M0 0 C0.66 0 1.32 0 2 0 C2.53394179 1.4117783 3.05165104 2.82970244 3.5625 4.25 C3.85253906 5.03890625 4.14257812 5.8278125 4.44140625 6.640625 C5.04522837 9.19103452 4.8473932 10.55322229 4 13 C3.32694982 11.39850114 2.66177773 9.79368971 2 8.1875 C1.62875 7.29417969 1.2575 6.40085937 0.875 5.48046875 C0 3 0 3 0 0 Z " fill="#BED9F2" transform="translate(169,326)"/>
<path d="M0 0 C0.66 0.33 1.32 0.66 2 1 C0.625 2.5 0.625 2.5 -1 4 C-1.66 4 -2.32 4 -3 4 C-3 4.99 -3 5.98 -3 7 C-4.32 7.33 -5.64 7.66 -7 8 C-7.33 7.34 -7.66 6.68 -8 6 C-5.63404067 3.38499232 -3.13950774 1.61000397 0 0 Z " fill="#E3EEF0" transform="translate(369,365)"/>
<path d="M0 0 C0.99 1.32 1.98 2.64 3 4 C2.54625 4.433125 2.0925 4.86625 1.625 5.3125 C-0.20024334 7.10798342 -0.20024334 7.10798342 -2 10 C-3.39195915 5.82412255 -1.82323219 3.86525224 0 0 Z " fill="#D2E9F7" transform="translate(174,235)"/>
<path d="M0 0 C0.86625 0.4640625 0.86625 0.4640625 1.75 0.9375 C3.84294184 1.92583364 5.74535275 2.5168613 8 3 C8.33 4.98 8.66 6.96 9 9 C7.87105124 8.06725891 6.74699124 7.12859878 5.625 6.1875 C4.99851562 5.66542969 4.37203125 5.14335937 3.7265625 4.60546875 C2 3 2 3 0 0 Z " fill="#B1DEF6" transform="translate(380,173)"/>
<path d="M0 0 C1.32 0 2.64 0 4 0 C2.8141763 3.37503669 1.72426311 5.64722731 -1 8 C-0.67 5.36 -0.34 2.72 0 0 Z " fill="#123850" transform="translate(338,485)"/>
<path d="M0 0 C0.66 0.33 1.32 0.66 2 1 C0.02 3.97 -1.96 6.94 -4 10 C-5 8 -5 8 -4.25 5 C-3 2 -3 2 0 0 Z " fill="#2881C1" transform="translate(372,437)"/>
<path d="M0 0 C0.99 0.66 1.98 1.32 3 2 C1.35 2.33 -0.3 2.66 -2 3 C-2 3.66 -2 4.32 -2 5 C-3.65 5 -5.3 5 -7 5 C-4.63707344 2.47411298 -3.33537489 1.11179163 0 0 Z " fill="#CDE0E6" transform="translate(323,396)"/>
<path d="M0 0 C4.8 3.32307692 4.8 3.32307692 5.8125 6.75 C5.874375 7.4925 5.93625 8.235 6 9 C5.01 8.67 4.02 8.34 3 8 C2.67 6.35 2.34 4.7 2 3 C1.01 2.67 0.02 2.34 -1 2 C-0.67 1.34 -0.34 0.68 0 0 Z " fill="#165FB0" transform="translate(190,366)"/>
<path d="M0 0 C0.33 0.99 0.66 1.98 1 3 C-0.125 5.125 -0.125 5.125 -2 7 C-4.6875 7.75 -4.6875 7.75 -7 8 C-6.02133662 6.85373678 -5.04205413 5.70800212 -4.0625 4.5625 C-3.51722656 3.92441406 -2.97195312 3.28632813 -2.41015625 2.62890625 C-1.63204305 1.73008851 -0.84063472 0.84063472 0 0 Z " fill="#DBE9E7" transform="translate(238,317)"/>
<path d="M0 0 C0.99 0 1.98 0 3 0 C3.69710731 1.28650706 4.38242876 2.57940665 5.0625 3.875 C5.63677734 4.95394531 5.63677734 4.95394531 6.22265625 6.0546875 C6.47917969 6.69664062 6.73570312 7.33859375 7 8 C6.67 8.66 6.34 9.32 6 10 C4.99723227 8.52270825 3.99785546 7.04311423 3 5.5625 C2.443125 4.73878906 1.88625 3.91507812 1.3125 3.06640625 C0 1 0 1 0 0 Z " fill="#1F5E9C" transform="translate(211,468)"/>
<path d="M0 0 C0.99 0.33 1.98 0.66 3 1 C1.35 3.64 -0.3 6.28 -2 9 C-3 5 -3 5 -2 3 C-1.34 3 -0.68 3 0 3 C0 2.01 0 1.02 0 0 Z " fill="#2481BF" transform="translate(364,448)"/>
<path d="M0 0 C2.61724095 2.36797991 4.32861729 4.89600354 6 8 C6 8.66 6 9.32 6 10 C3 9 3 9 1.3125 6.125 C0 3 0 3 0 0 Z " fill="#146BB8" transform="translate(151,364)"/>
<path d="M0 0 C0.66 0 1.32 0 2 0 C0.84414715 3.91211733 -0.35534962 6.8745041 -3 10 C-3 8.02 -3 6.04 -3 4 C-2.34 4 -1.68 4 -1 4 C-0.67 2.68 -0.34 1.36 0 0 Z " fill="#CCF1FD" transform="translate(391,336)"/>
<path d="M0 0 C-1.09898702 3.29696105 -1.94597387 4.04670589 -4.5625 6.1875 C-5.20316406 6.71730469 -5.84382813 7.24710937 -6.50390625 7.79296875 C-6.99761719 8.19128906 -7.49132812 8.58960938 -8 9 C-8.66 8.67 -9.32 8.34 -10 8 C-8.71451591 6.66070495 -7.42141845 5.32871357 -6.125 4 C-5.04605469 2.88625 -5.04605469 2.88625 -3.9453125 1.75 C-2 0 -2 0 0 0 Z " fill="#041C27" transform="translate(320,263)"/>
<path d="M0 0 C0.66 0.33 1.32 0.66 2 1 C-0.88341534 5.21422242 -3.04303419 6.76075855 -8 8 C-5.33333333 5.33333333 -2.66666667 2.66666667 0 0 Z " fill="#C9FBFE" transform="translate(208,193)"/>
<path d="M0 0 C2.25245881 2.68841859 3.88213958 4.64641875 5 8 C4.01 8 3.02 8 2 8 C0.25 5.6875 0.25 5.6875 -1 3 C-0.67 2.01 -0.34 1.02 0 0 Z " fill="#1861AB" transform="translate(208,460)"/>
<path d="M0 0 C0.66 0 1.32 0 2 0 C0.74194623 4.50802601 -0.90407165 7.4912812 -4 11 C-3.49357808 6.64477147 -2.61588503 3.55760365 0 0 Z " fill="#2A8AC6" transform="translate(400,389)"/>
<path d="M0 0 C0.33 0 0.66 0 1 0 C0.67 3.3 0.34 6.6 0 10 C-0.99 10.33 -1.98 10.66 -3 11 C-2.01 7.37 -1.02 3.74 0 0 Z " fill="#B4E1F8" transform="translate(426,335)"/>
<path d="M0 0 C4.75 0.875 4.75 0.875 7 2 C6.34 3.32 5.68 4.64 5 6 C3.35 4.02 1.7 2.04 0 0 Z " fill="#253044" transform="translate(264,297)"/>
<path d="M0 0 C0.33 0.66 0.66 1.32 1 2 C0.21654285 3.17219543 -0.57702836 4.33763668 -1.375 5.5 C-1.81585938 6.1496875 -2.25671875 6.799375 -2.7109375 7.46875 C-3.13632813 7.9740625 -3.56171875 8.479375 -4 9 C-4.66 9 -5.32 9 -6 9 C-4.47291037 5.56404834 -2.40072955 2.88087546 0 0 Z " fill="#2E93CF" transform="translate(168,191)"/>
<path d="M0 0 C1.32 0.66 2.64 1.32 4 2 C2.68 3.32 1.36 4.64 0 6 C-1.125 2.25 -1.125 2.25 0 0 Z " fill="#03346F" transform="translate(224,481)"/>
<path d="M0 0 C-3.53411321 2.12046792 -6.94393835 2.53199289 -11 3 C-8.21756596 -1.17365106 -4.53441502 -0.22300402 0 0 Z " fill="#ADDAF0" transform="translate(320,401)"/>
<path d="M0 0 C0.66 0 1.32 0 2 0 C0.70700306 2.88437779 -0.65941363 4.87219421 -3 7 C-3.66 6.67 -4.32 6.34 -5 6 C-3.38405168 3.95880212 -1.7143618 1.95927063 0 0 Z " fill="#F0F9FB" transform="translate(366,343)"/>
<path d="M0 0 C0.33 0 0.66 0 1 0 C1 4.62 1 9.24 1 14 C0.01 13.01 -0.98 12.02 -2 11 C-1.67 10.67 -1.34 10.34 -1 10 C-0.76712992 8.31816052 -0.58735834 6.6287584 -0.4375 4.9375 C-0.35371094 4.01839844 -0.26992188 3.09929687 -0.18359375 2.15234375 C-0.12300781 1.44207031 -0.06242187 0.73179687 0 0 Z " fill="#E0EFF5" transform="translate(353,310)"/>
<path d="M0 0 C0.33 0.99 0.66 1.98 1 3 C-1.64 4.98 -4.28 6.96 -7 9 C-5.04783565 5.09567131 -3.12613393 2.96160056 0 0 Z " fill="#011829" transform="translate(301,279)"/>
<path d="M0 0 C0.33 0 0.66 0 1 0 C1.25 5.625 1.25 5.625 -1 9 C-1.66 9 -2.32 9 -3 9 C-2.01 6.03 -1.02 3.06 0 0 Z " fill="#3A9DD7" transform="translate(146,225)"/>
<path d="M0 0 C0.66 0.33 1.32 0.66 2 1 C0.02 5.455 0.02 5.455 -2 10 C-2.33 10 -2.66 10 -3 10 C-3.36923077 4.58461538 -3.36923077 4.58461538 -1.5 1.625 C-1.005 1.08875 -0.51 0.5525 0 0 Z " fill="#2490D7" transform="translate(150,219)"/>
<path d="M0 0 C0.99 0.33 1.98 0.66 3 1 C2.01 1.33 1.02 1.66 0 2 C0 2.66 0 3.32 0 4 C-2.5 5.625 -2.5 5.625 -5 7 C-5 5.68 -5 4.36 -5 3 C-3.68 3 -2.36 3 -1 3 C-0.67 2.01 -0.34 1.02 0 0 Z " fill="#ACE0F5" transform="translate(182,174)"/>
<path d="M0 0 C6.75 0.875 6.75 0.875 9 2 C9 2.66 9 3.32 9 4 C6.03 3.01 3.06 2.02 0 1 C0 0.67 0 0.34 0 0 Z " fill="#25A1D4" transform="translate(320,173)"/>
<path d="M0 0 C0.99 0.33 1.98 0.66 3 1 C2.34 2.32 1.68 3.64 1 5 C-0.32 4.67 -1.64 4.34 -3 4 C-2.01 2.68 -1.02 1.36 0 0 Z " fill="#D9E8ED" transform="translate(290,553)"/>
<path d="M0 0 C-1.39332574 3.36720387 -2.9789286 4.9859524 -6 7 C-5.37162381 3.35541809 -4.14650034 0 0 0 Z " fill="#E5F5F8" transform="translate(303,542)"/>
<path d="M0 0 C-2.64 1.65 -5.28 3.3 -8 5 C-8 4.01 -8 3.02 -8 2 C-7.34 2 -6.68 2 -6 2 C-6 1.34 -6 0.68 -6 0 C-4 -1 -4 -1 0 0 Z " fill="#0B71C9" transform="translate(323,494)"/>
<path d="M0 0 C0.99 0.66 1.98 1.32 3 2 C1.02 4.97 1.02 4.97 -1 8 C-1.66 6.68 -2.32 5.36 -3 4 C-2.01 3.67 -1.02 3.34 0 3 C0 2.01 0 1.02 0 0 Z " fill="#1E7BBF" transform="translate(351,467)"/>
<path d="M0 0 C0.66 0.33 1.32 0.66 2 1 C0.75023244 4.65316671 0.32901247 5.78065836 -3 8 C-1.125 1.125 -1.125 1.125 0 0 Z " fill="#E5F2F9" transform="translate(363,455)"/>
<path d="M0 0 C1.60080151 4.00200378 0.29279692 7.04556236 -1 11 C-1.33 11 -1.66 11 -2 11 C-2.25 3.375 -2.25 3.375 0 0 Z " fill="#D3EEF8" transform="translate(429,329)"/>
<path d="M0 0 C1.98 0.99 1.98 0.99 4 2 C4 2.66 4 3.32 4 4 C4.66 4.33 5.32 4.66 6 5 C5.67 5.99 5.34 6.98 5 8 C2.74754119 5.31158141 1.11786042 3.35358125 0 0 Z " fill="#2BA2E0" transform="translate(380,216)"/>
</svg>
